<?xml version="1.0" encoding="utf-8"?>
<!-- Generator: Adobe Illustrator 19.0.0, SVG Export Plug-In . SVG Version: 6.00 Build 0)  -->
<svg version="1.1" id="Capa_1" xmlns="http://www.w3.org/2000/svg" xmlns:xlink="http://www.w3.org/1999/xlink" x="0px" y="0px"
	 viewBox="-425 141.9 348.1 348.1" style="enable-background:new -425 141.9 348.1 348.1;" xml:space="preserve">
<style type="text/css">
	.st0{fill:#315A68;}
</style>
<g id="XMLID_432_">
	<g id="XMLID_433_">
		<path id="XMLID_434_" class="st0" d="M-89.3,414.2l-52.3-52.3c-10.4-10.4-27.7-10.1-38.4,0.7l-26.3,26.3c-1.7-0.9-3.4-1.9-5.2-2.9
			c-16.6-9.2-39.4-21.8-63.3-45.8c-24-24-36.7-46.8-45.9-63.5c-1-1.8-1.9-3.5-2.8-5.1l17.7-17.6l8.7-8.7c10.8-10.8,11.1-28,0.7-38.4
			l-52.3-52.3c-10.4-10.4-27.6-10.1-38.4,0.7l-14.7,14.8l0.4,0.4c-4.9,6.3-9.1,13.6-12.1,21.4c-2.8,7.5-4.6,14.6-5.4,21.7
			c-6.9,57.2,19.2,109.5,90.2,180.5c98.1,98.1,177.2,90.7,180.6,90.3c7.4-0.9,14.5-2.7,21.8-5.5c7.8-3,15-7.2,21.3-12.1l0.3,0.3
			l14.9-14.6C-79.2,441.9-78.9,424.6-89.3,414.2z"/>
	</g>
</g>
</svg>
