<?xml version="1.0" encoding="utf-8"?>
<!-- Generator: Adobe Illustrator 19.0.0, SVG Export Plug-In . SVG Version: 6.00 Build 0)  -->
<svg version="1.1" id="Capa_1" xmlns="http://www.w3.org/2000/svg" xmlns:xlink="http://www.w3.org/1999/xlink" x="0px" y="0px"
	 viewBox="-65 66.1 428.9 428.9" style="enable-background:new -65 66.1 428.9 428.9;" xml:space="preserve">
<style type="text/css">
	.st0{clip-path:url(#XMLID_2_);}
	.st1{fill:#FFFFFF;}
	.st2{fill:#94C749;}
	.st3{fill:#A0CBFD;}
	.st4{fill:none;stroke:#FFFFFF;stroke-width:11;stroke-miterlimit:10;}
	.st5{fill:#C5C0BC;}
	.st6{fill:#315A68;}
	.st7{fill:none;stroke:#CCCCCC;stroke-width:4;stroke-miterlimit:10;}
	.st8{fill:#AD5C44;}
</style>
<g>
	<g id="XMLID_1460_">
		<defs>
			<polygon id="XMLID_1462_" points="10.8,272.3 -60.5,413.9 359.4,413.9 288.1,272.3 			"/>
		</defs>
		<clipPath id="XMLID_2_">
			<use xlink:href="#XMLID_1462_"  style="overflow:visible;"/>
		</clipPath>
		<g id="XMLID_1463_" class="st0">
			<rect id="XMLID_1711_" x="-45.8" y="243.9" class="st1" width="405.2" height="211.8"/>
			<g id="XMLID_1709_">
				<path id="XMLID_1710_" class="st2" d="M114.9,393.6l-163.1,10.9c-7.3,0.5-13.7,4-13.5,7.5l1.1,23c0.1,1.9,1.9,3.5,4.9,4.4
					L0.1,455c3.2,0.9,7.1,0.9,10.9,0l126.3-29.6c6.2-1.5,9-5.2,6.4-8.3l-16.8-20.2C124.8,394.6,120,393.3,114.9,393.6z"/>
			</g>
			<g id="XMLID_1707_">
				<path id="XMLID_1708_" class="st3" d="M278.3,439.7l-45.3-1c-3-27.1-6.3-56.4,18.1-77.2c2.5-2.1,5.1-4,7.6-5.9
					c3.9-2.9,7.5-5.5,9.7-8.2c4.1-5.1,3.3-11.3,2.2-16c-0.4-1.7-0.9-3.4-1.4-5.1c-1.3-4.3-2.6-8.7-2.4-13
					c0.3-7.5,5.1-13.2,14.1-17.2c11.7-5.2,31.4-7.2,49.7-5l-3.9,10.5c-6.8-0.8-15.2,0.2-20,2.5c-6.4,3-7.4,7.7-7.2,11.2
					c0.2,3.5,1.7,7.3,3.4,11.4c0.7,1.8,1.4,3.6,2.1,5.5c2.1,6.1,3.9,14.3-1.5,22.1c-2.8,4.1-7.2,7.6-11.5,11.1
					c-2.3,1.8-4.4,3.6-6.3,5.3C267.2,388.2,272.7,414,278.3,439.7z"/>
			</g>
			<g id="XMLID_1703_">
				<path id="XMLID_1704_" class="st1" d="M-41,377.5L-41,377.5c-16,0-30.2-1.3-42.2-4c-19.7-4.3-31.9-12.1-33.7-21l-0.6-3.2
					l81.5-60.3l5-1.4c9.8-2.8,21.9-4.3,33.2-4.3c3.8,0,7.5,0.2,11,0.5c4.7,0.5,9,1.2,12.8,2.3c7.5,2.1,12.5,5.2,14,8.7
					c0.9,2,0.5,3.9,0.3,5.4c-0.1,0.7-0.2,1.4-0.2,2c0.3,3.3,7.2,6.8,14.8,10.5c9.6,4.8,22,10.9,24.6,19.5c3,9.9-8.1,21.6-29.8,30.4
					c-23.5,9.5-51.4,13-70.6,14.3C-27.9,377.3-34.6,377.5-41,377.5z M-96.4,348.6l0.1,0.6c1.7,6.6,11.3,12.3,26.4,15.6
					c9.5,2,20.8,3,33.6,3c5.3,0,10.8-0.2,16.4-0.5c15.6-1,38-3.7,56.7-11c16.5-6.5,25.4-15.1,23.6-22.5C58.9,327,49.2,322,40,317.3
					c-8.6-4.4-17.2-8.8-17.3-14.1c0-0.8,0.2-1.7,0.3-2.5c0.3-1.4,0.6-2.8,0.1-4.2c-0.8-2.3-4-4.3-8.8-5.7c-2.4-0.7-5.2-1.2-8.1-1.5
					c-2.2-0.2-4.6-0.3-7-0.3c-7.4,0-15.2,1-21.5,2.8l-0.9,0.3L-96.4,348.6z"/>
			</g>
			<g id="XMLID_1701_">
				<path id="XMLID_1702_" class="st3" d="M-91.8,348.5c1.8,6.4,11.4,11.6,24.8,14.4c13.6,2.9,30.5,3.4,47.5,2.3
					c19.2-1.2,38.8-4.6,53.8-10.4c14.5-5.6,23.8-13.6,22.2-20.8c-2.9-12.6-37.3-19.4-37.5-30.7c0-2.2,1.3-4.5,0.5-6.6
					c-1.1-3-6.9-5.5-14.8-6.3c-7.8-0.8-17.6,0.1-25,2.2L-91.8,348.5z"/>
			</g>
			<g id="XMLID_1699_">
				<path id="XMLID_1700_" class="st1" d="M337.7,318.9L140,309c-14.6-0.7-34.6-1.7-47.7-6.6c-5.5-2-9-4.4-12.3-6.6
					c-1.8-1.2-3.5-2.3-5.4-3.4c-9.7-5.2-25.9-7.7-37.7-8.9c-15.6-1.5-32.9-1.8-49.6-2.1l3.8-5.4c17.2,0.3,35.1,0.5,52,2.2
					c13.9,1.3,33.2,4.2,45.4,10.6c2.3,1.2,4.3,2.5,6.2,3.7c3,1.9,5.9,3.8,9.8,5.2c8.6,3.1,22.2,4,37.9,4.7l193.5,9.5L337.7,318.9z"
					/>
			</g>
			<g id="XMLID_1697_">
				<path id="XMLID_1698_" class="st2" d="M82.5,301.5c-4.1-1.8-7.8-5.1-12.5-6.5c-4.6-1.4-10.8-1.5-16.7,0
					c-7.7,1.9-11.1,5.5-8.1,8.5c3.6,3.6,10.9,6.2,17.6,9.2c15.4,7,25.3,16.2,28.5,26.7c0.5,1.8,6.4,1.9,8,0.2l24.7-25.1
					c2.1-2.1-1-4.4-6.5-4.9C103.8,308.3,91,305.2,82.5,301.5z"/>
			</g>
			<g id="XMLID_1695_">
				<polygon id="XMLID_1696_" class="st1" points="34.6,297.1 27.4,292.1 67.3,283.4 141.6,278.2 224.4,265.3 232,269.9 
					146.4,283.5 72.2,288.8 				"/>
			</g>
			<g id="XMLID_1693_">
				<path id="XMLID_1694_" class="st4" d="M158.3,306.6"/>
			</g>
			<g id="XMLID_1691_">
				<path id="XMLID_1692_" class="st4" d="M68.5,341.6"/>
			</g>
			<g id="XMLID_1689_">
				<path id="XMLID_1690_" class="st1" d="M96.9,352.5c-2,0-4.1-0.1-6.1-0.2c-0.6,0-1.1-0.1-1.6-0.1c-12.8-1.1-23.8-4.6-29.4-9.3
					l17.4-4.2c3.4,2.7,9.8,4.7,17.1,5.3c0.3,0,0.6,0,0.9,0.1c9.3,0.6,18.8-1.8,22.5-5.6l30.3-32L129.8,268l15-0.9l21.2,39.7
					L135.6,341C129.5,347.9,113.8,352.5,96.9,352.5z"/>
			</g>
			<g id="XMLID_1687_">
				<polygon id="XMLID_1688_" class="st1" points="157.1,424.4 93.6,349.9 112,346.5 178.7,419.4 				"/>
			</g>
			<g id="XMLID_1685_">
				<polygon id="XMLID_1686_" class="st1" points="371.8,406.3 134.5,389.4 -86.5,406.3 -83.6,395.3 134.8,379 136.4,379.1 
					369,395.3 				"/>
			</g>
			<g id="XMLID_1683_">
				<polygon id="XMLID_1684_" class="st1" points="216.3,389.9 194.4,388.3 201.5,352.6 223.5,309.7 220,265.6 235.2,265.9 
					241.2,310.8 221.4,354.5 				"/>
			</g>
			<g id="XMLID_1681_">
				<polygon id="XMLID_1682_" class="st1" points="43.4,312.7 38.7,310.5 87.9,294.7 92.7,296.7 				"/>
			</g>
			<g id="XMLID_1679_">
				<path id="XMLID_1680_" class="st1" d="M70.2,328.8l-6.7-1.8c8.8-4.9,23.7-8.2,40.1-9c16.2-0.8,32.1,0.9,42.7,2.2l-2.5,3.1
					c-15.8-2-28.3-2.7-39.6-2.1C90.1,321.9,77.5,324.7,70.2,328.8z"/>
			</g>
			<g id="XMLID_1677_">
				<polygon id="XMLID_1678_" class="st1" points="95.3,321.1 62.3,305.2 68.7,303.2 101.8,318.9 				"/>
			</g>
			<g id="XMLID_1675_">
				<polygon id="XMLID_1676_" class="st5" points="137.9,294.6 102.4,296 103.4,289.3 138.1,289.3 				"/>
			</g>
			<g id="XMLID_1673_">
				<polygon id="XMLID_1674_" class="st5" points="112.8,286.1 112.5,287.8 138.1,287.8 138.3,284.4 				"/>
			</g>
			<g id="XMLID_1671_">
				<polygon id="XMLID_1672_" class="st5" points="98.9,291.3 89,291.3 89.8,287.5 99.7,286.8 				"/>
			</g>
			<g id="XMLID_1669_">
				<path id="XMLID_1670_" class="st2" d="M145.9,300.1c-0.4-0.9-1.6-1.9-4-2.2c-1.4-0.2-3-0.1-4.5,0c-2.3,0.2-4.7,0.3-7,0.5
					c-2,0.1-4,0.3-5.6,0.7c-1.7,0.4-3,1.2-2.5,1.9c0.3,0.5,1.5,1,2.8,1.2c1.3,0.2,2.8,0.3,4.3,0.4c4.7,0.2,9.5,0.4,14.2,0.6l1.3,0.1
					c0.7-0.1,1.5-0.2,2.2-0.3C146.2,302,146.3,301.1,145.9,300.1z"/>
			</g>
			<g id="XMLID_1667_">
				<path id="XMLID_1668_" class="st1" d="M115.8,302.3l-7.8-0.1c0.6-2.4,4.7-4.7,10.5-5.8c3-0.6,6.3-0.8,9.1-1
					c7.8-0.5,15.8-0.8,23.8-0.7l-0.1,2.8c-7.5,0-15.1,0.2-22.5,0.7c-2.2,0.1-4.8,0.3-6.9,0.7C118.6,299.5,116.1,300.9,115.8,302.3z"
					/>
			</g>
			<g id="XMLID_1665_">
				<polygon id="XMLID_1666_" class="st5" points="129.1,277.8 83.3,277.8 85.3,269.2 129.7,269.2 				"/>
			</g>
			<g id="XMLID_1663_">
				<polygon id="XMLID_1664_" class="st5" points="67,276 55,276 56.9,270.4 68.7,270.4 				"/>
			</g>
			<g id="XMLID_1661_">
				<polygon id="XMLID_1662_" class="st5" points="49.9,276 37.9,276 40.1,270.4 51.9,270.4 				"/>
			</g>
			<g id="XMLID_1659_">
				<polygon id="XMLID_1660_" class="st5" points="32.7,276 20.7,276 23.3,270.4 35.1,270.4 				"/>
			</g>
			<g id="XMLID_1657_">
				<path id="XMLID_1658_" class="st1" d="M52.5,283.1l-1.6-2.4c7.6-0.9,14.1-1.8,18.2-3.5c2-0.9,3.5-2,4.3-3.3
					c0.7-1.3,0.9-2.6,1-3.9l7-0.1c-0.1,1.4-0.2,2.8-1,4.3c-1,1.8-2.9,3.3-5.8,4.5C68.7,281.2,59.4,282.3,52.5,283.1z"/>
			</g>
			<g id="XMLID_1655_">
				<path id="XMLID_1656_" class="st2" d="M72.7,282.4c-1.1,0-2.1,0.3-2.2,0.7c-0.1,0.4,0.7,0.7,1.8,0.7c1.1,0,2.1-0.3,2.2-0.7
					C74.6,282.7,73.8,282.4,72.7,282.4z"/>
			</g>
			<g id="XMLID_1653_">
				<path id="XMLID_1654_" class="st2" d="M82.4,281.7c-1.1,0-2,0.3-2.1,0.7c-0.1,0.4,0.7,0.7,1.8,0.7c1.1,0,2.1-0.3,2.1-0.7
					C84.3,282,83.5,281.7,82.4,281.7z"/>
			</g>
			<g id="XMLID_1651_">
				<path id="XMLID_1652_" class="st2" d="M134.4,277.8c-1.1,0-2,0.3-2,0.7c0,0.4,0.8,0.7,1.9,0.7c1.1,0,2-0.3,2-0.7
					C136.3,278.1,135.5,277.8,134.4,277.8z"/>
			</g>
			<g id="XMLID_1649_">
				<path id="XMLID_1650_" class="st2" d="M53.6,279c-1.1,0-2.1,0.3-2.2,0.7c-0.1,0.4,0.6,0.7,1.7,0.7s2.1-0.3,2.2-0.7
					C55.5,279.3,54.7,279,53.6,279z"/>
			</g>
			<g id="XMLID_1647_">
				<path id="XMLID_1648_" class="st2" d="M14.2,272.8c-1.1,0-2.1,0.3-2.2,0.6c-0.2,0.4,0.5,0.7,1.6,0.7c1.1,0,2.1-0.3,2.2-0.7
					C15.9,273.1,15.2,272.8,14.2,272.8z"/>
			</g>
			<g id="XMLID_1645_">
				<path id="XMLID_1646_" class="st2" d="M36.3,289.5c-1.1,0-2.2,0.3-2.3,0.7c-0.2,0.4,0.6,0.7,1.7,0.7c1.1,0,2.2-0.3,2.3-0.7
					C38.2,289.8,37.5,289.5,36.3,289.5z"/>
			</g>
			<g id="XMLID_1643_">
				<path id="XMLID_1644_" class="st2" d="M55.7,291.9c-1.1,0-2.1,0.3-2.3,0.7c-0.1,0.4,0.7,0.7,1.8,0.7s2.2-0.3,2.3-0.7
					C57.6,292.2,56.8,291.9,55.7,291.9z"/>
			</g>
			<g id="XMLID_1641_">
				<path id="XMLID_1642_" class="st2" d="M154.2,281.9c-1.1,0-2,0.3-2,0.7c0,0.4,0.9,0.7,2,0.7s2-0.3,2-0.7
					C156.2,282.2,155.3,281.9,154.2,281.9z"/>
			</g>
			<g id="XMLID_1639_">
				<path id="XMLID_1640_" class="st2" d="M202.7,294.9c-1.1,0-2,0.3-1.9,0.8c0.1,0.4,1.1,0.8,2.2,0.8c1.1,0,2-0.3,1.9-0.8
					C204.8,295.2,203.8,294.9,202.7,294.9z"/>
			</g>
			<g id="XMLID_1637_">
				<path id="XMLID_1638_" class="st2" d="M216.1,294.9c-1.1,0-2,0.3-1.9,0.8c0.1,0.4,1.1,0.8,2.2,0.8c1.1,0,2-0.3,1.9-0.8
					C218.2,295.2,217.2,294.9,216.1,294.9z"/>
			</g>
			<g id="XMLID_1635_">
				<path id="XMLID_1636_" class="st2" d="M182.8,310.6c-1.2,0-2.1,0.4-2.1,0.8c0,0.5,1.1,0.8,2.3,0.8c1.2,0,2.1-0.4,2.1-0.8
					C185.1,310.9,184,310.6,182.8,310.6z"/>
			</g>
			<g id="XMLID_1633_">
				<path id="XMLID_1634_" class="st2" d="M274.3,335.9c-1.3,0-2.2,0.4-2,1c0.2,0.5,1.4,1,2.7,1c1.3,0,2.2-0.4,2-1
					C276.8,336.3,275.6,335.9,274.3,335.9z"/>
			</g>
			<g id="XMLID_1631_">
				<path id="XMLID_1632_" class="st2" d="M298.8,308.6c-1.2,0-2,0.4-1.8,0.8c0.2,0.5,1.4,0.8,2.6,0.8c1.2,0,2-0.4,1.8-0.8
					C301.2,309,300,308.6,298.8,308.6z"/>
			</g>
			<g id="XMLID_1629_">
				<path id="XMLID_1630_" class="st2" d="M237.9,280.4c-1.1,0-1.9,0.3-1.8,0.7c0.1,0.4,1.1,0.7,2.2,0.7c1.1,0,1.9-0.3,1.8-0.7
					C240,280.7,239,280.4,237.9,280.4z"/>
			</g>
			<g id="XMLID_1627_">
				<path id="XMLID_1628_" class="st2" d="M246,287.1c-1.1,0-1.9,0.3-1.8,0.7c0.1,0.4,1.1,0.7,2.3,0.7c1.1,0,1.9-0.3,1.8-0.7
					C248.2,287.4,247.1,287.1,246,287.1z"/>
			</g>
			<g id="XMLID_1625_">
				<path id="XMLID_1626_" class="st2" d="M286.5,287.1c-1.1,0-1.9,0.3-1.7,0.7c0.2,0.4,1.2,0.7,2.4,0.7c1.1,0,1.9-0.3,1.7-0.7
					C288.7,287.4,287.6,287.1,286.5,287.1z"/>
			</g>
			<g id="XMLID_1623_">
				<path id="XMLID_1624_" class="st2" d="M282.2,295c-1.1,0-1.9,0.3-1.7,0.8c0.2,0.4,1.3,0.8,2.4,0.8c1.1,0,1.9-0.3,1.7-0.8
					C284.4,295.3,283.3,295,282.2,295z"/>
			</g>
			<g id="XMLID_1621_">
				<path id="XMLID_1622_" class="st2" d="M316.1,339.6c-1.3,0-2.2,0.4-1.9,1c0.3,0.6,1.5,1,2.9,1c1.3,0,2.2-0.5,1.9-1
					C318.7,340.1,317.4,339.6,316.1,339.6z"/>
			</g>
			<g id="XMLID_1619_">
				<path id="XMLID_1620_" class="st2" d="M96.5,293.2c-1.1,0-2.1,0.3-2.2,0.7c-0.1,0.4,0.8,0.8,1.9,0.8c1.1,0,2.1-0.3,2.2-0.8
					C98.5,293.5,97.7,293.2,96.5,293.2z"/>
			</g>
			<g id="XMLID_1617_">
				<path id="XMLID_1618_" class="st2" d="M106.2,297.6c-1.1,0-2.1,0.3-2.2,0.8c-0.1,0.4,0.8,0.8,2,0.8c1.2,0,2.1-0.3,2.2-0.8
					C108.2,297.9,107.3,297.6,106.2,297.6z"/>
			</g>
			<g id="XMLID_1615_">
				<path id="XMLID_1616_" class="st2" d="M129.2,307.6c-1.2,0-2.2,0.4-2.2,0.8c0,0.5,0.9,0.8,2.1,0.8c1.2,0,2.2-0.4,2.2-0.8
					C131.3,308,130.4,307.6,129.2,307.6z"/>
			</g>
			<g id="XMLID_1613_">
				<path id="XMLID_1614_" class="st2" d="M81.8,338.2c-1.3,0-2.5,0.4-2.6,1c-0.1,0.5,0.9,1,2.2,1c1.3,0,2.5-0.4,2.6-1
					C84.1,338.7,83.2,338.2,81.8,338.2z"/>
			</g>
			<g id="XMLID_1611_">
				<path id="XMLID_1612_" class="st2" d="M144.3,378.7c-1.5,0-2.7,0.6-2.7,1.2c0,0.7,1.2,1.2,2.6,1.2c1.5,0,2.7-0.6,2.7-1.2
					C146.9,379.3,145.7,378.7,144.3,378.7z"/>
			</g>
			<g id="XMLID_1609_">
				<path id="XMLID_1610_" class="st2" d="M52.5,382.9c-1.5,0-2.8,0.6-3,1.3c-0.2,0.7,0.9,1.3,2.4,1.3c1.5,0,2.8-0.6,3-1.3
					C55,383.5,54,382.9,52.5,382.9z"/>
			</g>
			<g id="XMLID_1607_">
				<path id="XMLID_1608_" class="st2" d="M21.6,385.3c-1.5,0-2.9,0.6-3.1,1.3c-0.2,0.7,0.8,1.3,2.3,1.3s2.9-0.6,3.1-1.3
					C24.1,385.9,23.1,385.3,21.6,385.3z"/>
			</g>
			<g id="XMLID_1605_">
				<path id="XMLID_1606_" class="st2" d="M-38.1,390.4c-1.5,0-3,0.6-3.4,1.3c-0.4,0.7,0.6,1.3,2.1,1.3c1.5,0,3-0.6,3.4-1.3
					C-35.7,391-36.6,390.4-38.1,390.4z"/>
			</g>
			<g id="XMLID_1603_">
				<path id="XMLID_1604_" class="st2" d="M194.7,382.7c-1.5,0-2.6,0.6-2.5,1.3c0.1,0.7,1.3,1.3,2.8,1.3c1.5,0,2.6-0.6,2.5-1.3
					C197.4,383.3,196.1,382.7,194.7,382.7z"/>
			</g>
			<g id="XMLID_1601_">
				<path id="XMLID_1602_" class="st2" d="M235.7,395.2c-1.5,0-2.6,0.6-2.5,1.4c0.2,0.7,1.5,1.4,3.1,1.4c1.5,0,2.6-0.6,2.5-1.4
					C238.6,395.9,237.2,395.2,235.7,395.2z"/>
			</g>
			<g id="XMLID_1599_">
				<path id="XMLID_1600_" class="st2" d="M274.4,387.3c-1.5,0-2.5,0.6-2.3,1.3c0.2,0.7,1.6,1.3,3.1,1.3c1.5,0,2.5-0.6,2.3-1.3
					C277.3,387.9,275.9,387.3,274.4,387.3z"/>
			</g>
			<g id="XMLID_1597_">
				<path id="XMLID_1598_" class="st2" d="M320.7,403.2c-1.6,0-2.6,0.6-2.2,1.4c0.3,0.8,1.9,1.4,3.4,1.4c1.6,0,2.6-0.6,2.2-1.4
					C323.7,403.8,322.2,403.2,320.7,403.2z"/>
			</g>
			<g id="XMLID_1595_">
				<path id="XMLID_1596_" class="st2" d="M188,408.7c-1.6,0-2.8,0.6-2.7,1.4c0.1,0.8,1.4,1.5,3,1.5c1.6,0,2.8-0.7,2.7-1.5
					C190.9,409.4,189.6,408.7,188,408.7z"/>
			</g>
			<g id="XMLID_1593_">
				<path id="XMLID_1594_" class="st2" d="M73,349.3c-1.3,0-2.5,0.5-2.7,1.1c-0.1,0.6,0.9,1.1,2.2,1.1c1.4,0,2.6-0.5,2.7-1.1
					C75.4,349.8,74.4,349.3,73,349.3z"/>
			</g>
			<g id="XMLID_1591_">
				<path id="XMLID_1592_" class="st2" d="M311.4,356.6c-1.4,0-2.3,0.5-2,1.1c0.3,0.6,1.6,1.1,3,1.1c1.4,0,2.3-0.5,2-1.1
					C314.1,357.1,312.7,356.6,311.4,356.6z"/>
			</g>
			<g id="XMLID_1589_">
				<path id="XMLID_1590_" class="st2" d="M327.1,362.2c-1.4,0-2.3,0.5-2,1.1c0.3,0.6,1.7,1.1,3.1,1.1c1.4,0,2.3-0.5,2-1.1
					C329.8,362.7,328.5,362.2,327.1,362.2z"/>
			</g>
			<g id="XMLID_1587_">
				<path id="XMLID_1588_" class="st2" d="M204.3,344.3c-1.3,0-2.3,0.5-2.3,1c0.1,0.6,1.2,1,2.6,1c1.3,0,2.3-0.5,2.2-1
					C206.7,344.7,205.6,344.3,204.3,344.3z"/>
			</g>
			<g id="XMLID_1585_">
				<path id="XMLID_1586_" class="st2" d="M128.2,359c-1.4,0-2.5,0.5-2.6,1.1c0,0.6,1.1,1.1,2.4,1.1c1.4,0,2.5-0.5,2.6-1.1
					C130.7,359.5,129.6,359,128.2,359z"/>
			</g>
			<g id="XMLID_1583_">
				<path id="XMLID_1584_" class="st2" d="M184.8,339.1c-1.3,0-2.3,0.4-2.3,1c0.1,0.6,1.2,1,2.5,1c1.3,0,2.3-0.4,2.3-1
					C187.2,339.6,186.1,339.1,184.8,339.1z"/>
			</g>
			<g id="XMLID_1581_">
				<path id="XMLID_1582_" class="st2" d="M208.9,338.7c-1.3,0-2.3,0.4-2.2,1c0.1,0.6,1.2,1,2.5,1c1.3,0,2.3-0.4,2.2-1
					C211.3,339.1,210.2,338.7,208.9,338.7z"/>
			</g>
			<g id="XMLID_1579_">
				<path id="XMLID_1580_" class="st2" d="M156.8,318.4c-1.2,0-2.2,0.4-2.2,0.9c0,0.5,1,0.9,2.3,0.9c1.2,0,2.2-0.4,2.2-0.9
					C159.1,318.8,158.1,318.4,156.8,318.4z"/>
			</g>
			<g id="XMLID_1577_">
				<path id="XMLID_1578_" class="st2" d="M93.3,343c-1.3,0-2.5,0.5-2.6,1c-0.1,0.6,0.9,1,2.2,1c1.3,0,2.5-0.5,2.6-1
					C95.6,343.4,94.6,343,93.3,343z"/>
			</g>
			<g id="XMLID_1575_">
				<polygon id="XMLID_1576_" class="st5" points="60.5,290.8 63.6,292.4 71.8,290.2 68.6,288.6 				"/>
			</g>
			<g id="XMLID_1573_">
				<polygon id="XMLID_1574_" class="st1" points="153.1,297.4 151.6,294.6 229.2,289.2 231.3,291.8 				"/>
			</g>
			<g id="XMLID_1571_">
				<path id="XMLID_1572_" class="st1" d="M325.6,298.8c-9.4-0.6-19-1.2-28.7-2.3c-11.4-1.4-20.9-3.3-28.3-5.8c-3.9-1.3-7-2.7-10-4
					c-3.3-1.5-6.4-2.8-10-3.8c-4.8-1.3-11.1-2.1-16.9-2l-2.5-5.4c9.7-0.2,20,1,28.3,3.2c5.3,1.4,9.2,3.1,13.1,4.8
					c2.7,1.2,5.3,2.3,8.1,3.2c5.2,1.7,12.1,3.1,20.6,4.1c8.2,1,16.9,1.5,25.4,2L325.6,298.8z"/>
			</g>
			<g id="XMLID_1569_">
				<polygon id="XMLID_1570_" class="st1" points="376.6,358 208.7,358 128.7,331.6 140.5,325.7 214.1,349.2 371.1,349.2 				"/>
			</g>
			<g id="XMLID_1567_">
				<path id="XMLID_1568_" class="st2" d="M251.9,358.9l-27,0c-1.8,0-3.2,0.6-3.3,1.4l-3.2,22.1c-0.1,1,1.5,1.9,3.7,2.1l12.6,0.8
					c2,0.1,3.7-0.4,4-1.4c2.7-8.3,8.5-16,17-22.5C257,360.4,254.9,358.9,251.9,358.9z"/>
			</g>
			<g id="XMLID_1565_">
				<path id="XMLID_1566_" class="st2" d="M295.1,270.8l-21.8-3.6c-0.7-0.1-1.5-0.1-2.2-0.1l-32.9,3.1c-1.2,0.1-1.9,0.5-1.9,0.9
					l0.2,3c0,0.5,1.3,1,3,1.1c8.5,0.4,16.8,2.3,23.5,4.5c2.4,0.8,4.7,1.7,7.7,2.1c2.8,0.3,5.7,0.1,8.3-0.1
					c8.1-0.6,16.2-1.2,24.2-1.8c1.6-0.1,2.4-0.7,1.7-1.2l-8-7.1C296.7,271.2,296,270.9,295.1,270.8z"/>
			</g>
			<g id="XMLID_1563_">
				<path id="XMLID_1564_" class="st1" d="M47.3,392.8c-18.2-6.2-32.2-14.4-40.4-23.5l9-2.2c7.8,8.4,20.9,15.9,37.9,21.6L47.3,392.8
					z"/>
			</g>
			<g id="XMLID_1561_">
				<polygon id="XMLID_1562_" class="st1" points="226.8,324 144.1,323.3 144.3,320 226.2,320.7 				"/>
			</g>
			<g id="XMLID_1559_">
				<path id="XMLID_1560_" class="st1" d="M309.6,420.4l-10.5-2.5c7-11.2,9.5-22.6,7.9-33.7c-0.2-1.1-0.4-2.2-0.6-3.3
					c-0.8-4.4-1.6-8.7,0.1-12.8c3.7-8.9,19.7-15,39.9-15.5l2.8,4c-16.7,0.5-30.3,5.8-33.1,13.1c-1.4,3.6-0.6,7.5,0.3,11.8
					c0.2,1.1,0.5,2.3,0.7,3.4C319.1,396.5,316.7,408.6,309.6,420.4z"/>
			</g>
			<g id="XMLID_1557_">
				<polygon id="XMLID_1558_" class="st5" points="187.9,305.1 222.7,306.6 221.8,298.4 187.1,298.4 				"/>
			</g>
			<g id="XMLID_1555_">
				<polygon id="XMLID_1556_" class="st5" points="181.4,304.7 166.8,304.7 166.4,296.9 180.6,296.9 				"/>
			</g>
			<g id="XMLID_1553_">
				<polygon id="XMLID_1554_" class="st5" points="176.3,278.8 161.7,281.1 165,291.7 177.5,290.5 				"/>
			</g>
			<g id="XMLID_1551_">
				<polygon id="XMLID_1552_" class="st5" points="185.4,279.3 186.9,291.7 219.4,288.5 218.4,274.1 				"/>
			</g>
			<g id="XMLID_1549_">
				<polygon id="XMLID_1550_" class="st5" points="49.9,287.5 41.1,287.5 42.2,284.4 51,284.4 				"/>
			</g>
			<g id="XMLID_1547_">
				<polygon id="XMLID_1548_" class="st5" points="35.2,286.2 26.4,286.2 27.7,283.1 36.5,283.1 				"/>
			</g>
			<g id="XMLID_1545_">
				<polygon id="XMLID_1546_" class="st5" points="21.1,284.7 12.3,284.7 13.8,281.6 22.5,281.6 				"/>
			</g>
			<g id="XMLID_1543_">
				<polygon id="XMLID_1544_" class="st5" points="304.2,335.4 326.7,335.4 317.6,318 296.2,318 				"/>
			</g>
			<g id="XMLID_1541_">
				<polygon id="XMLID_1542_" class="st5" points="350.2,347.5 302.2,347.5 300.3,343.1 347.7,343.1 				"/>
			</g>
			<g id="XMLID_1539_">
				<polygon id="XMLID_1540_" class="st5" points="248.4,334.6 246.2,326.9 238.1,326.9 229.8,348.8 271.1,348.8 266.2,334.6 				
					"/>
			</g>
			<g id="XMLID_1537_">
				<polygon id="XMLID_1538_" class="st5" points="242.4,314.9 239.4,322 271.4,322 269.2,315.9 				"/>
			</g>
			<g id="XMLID_1535_">
				<polygon id="XMLID_1536_" class="st5" points="275,331.5 258.5,331.5 256.3,324.9 272.5,324.9 				"/>
			</g>
			<g id="XMLID_1533_">
				<path id="XMLID_1534_" class="st2" d="M146.8,271.6l2.2,4.3c0.2,0.4,1.5,0.6,2.6,0.5l23.7-3.7c1.7-0.3,1.1-1.1-0.8-1.2
					l-25.8-0.6C147.6,270.9,146.6,271.2,146.8,271.6z"/>
			</g>
			<g id="XMLID_1531_">
				<polygon id="XMLID_1532_" class="st5" points="155,340.1 142.3,335.9 128.9,347.8 141.6,353.3 				"/>
			</g>
			<g id="XMLID_1526_">
				<g id="XMLID_1529_">
					<polygon id="XMLID_1530_" class="st5" points="180.7,348.8 159.5,341.7 146,355.1 166.6,364 					"/>
				</g>
				<g id="XMLID_1527_">
					<polygon id="XMLID_1528_" class="st5" points="185.5,350.3 171.3,366 194.1,375.9 199.4,355 					"/>
				</g>
			</g>
			<g id="XMLID_1524_">
				<polyline id="XMLID_1525_" class="st5" points="163.9,394.5 171.5,406.7 200.3,406.7 198.8,394.5 163.9,394.5 				"/>
			</g>
			<g id="XMLID_1522_">
				<polygon id="XMLID_1523_" class="st5" points="227.3,410.3 213,410.3 210.8,395.6 224.5,395.6 				"/>
			</g>
			<g id="XMLID_1520_">
				<polygon id="XMLID_1521_" class="st5" points="217.4,319 169.2,319 168.9,313.4 216.2,313.4 				"/>
			</g>
			<g id="XMLID_1518_">
				<polygon id="XMLID_1519_" class="st5" points="171.6,311.4 162.5,311.4 162.5,309.8 171.5,309.8 				"/>
			</g>
			<g id="XMLID_1516_">
				<polygon id="XMLID_1517_" class="st5" points="189.7,324.9 185.6,324.9 186.7,334.2 209.4,334.2 214.5,324.9 				"/>
			</g>
			<g id="XMLID_1514_">
				<polygon id="XMLID_1515_" class="st5" points="157.6,323.9 157.6,325.8 171.6,325.8 171.5,323.9 				"/>
			</g>
			<g id="XMLID_1512_">
				<polygon id="XMLID_1513_" class="st5" points="157.6,327 157.7,328.9 171.8,328.9 171.7,327 				"/>
			</g>
			<g id="XMLID_1510_">
				<polygon id="XMLID_1511_" class="st5" points="157.7,330 157.8,332 172.1,332 171.9,330 				"/>
			</g>
			<g id="XMLID_1508_">
				<polygon id="XMLID_1509_" class="st1" points="219,339 161.1,339 161,335.4 218.3,335.4 				"/>
			</g>
			<g id="XMLID_1506_">
				<path id="XMLID_1507_" class="st2" d="M99.7,366.5l-11.3,13.9c-0.7,0.8,0.7,1.6,2.5,1.5l24.9-1.7c1.7-0.1,2.7-1,2-1.7
					l-13.6-12.2C103.2,365.4,100.4,365.6,99.7,366.5z"/>
			</g>
			<g id="XMLID_1504_">
				<polygon id="XMLID_1505_" class="st1" points="268.8,287 266.6,284.4 306.5,282.2 309,284.7 				"/>
			</g>
			<g id="XMLID_1502_">
				<polygon id="XMLID_1503_" class="st5" points="270.4,298 268.9,291.7 239.3,291.4 240.4,298 				"/>
			</g>
			<g id="XMLID_1500_">
				<polygon id="XMLID_1501_" class="st5" points="240.7,299.9 241.8,306.8 272.8,308.1 270.9,299.9 				"/>
			</g>
			<g id="XMLID_1498_">
				<polygon id="XMLID_1499_" class="st5" points="304.3,364.2 304.4,360.3 289.2,360.3 286.2,364.2 				"/>
			</g>
			<g id="XMLID_1496_">
				<polygon id="XMLID_1497_" class="st5" points="304,372.2 304.2,366.6 284.3,366.6 279.7,372.2 				"/>
			</g>
			<g id="XMLID_1494_">
				<polygon id="XMLID_1495_" class="st5" points="277.7,374.8 270,384.4 303.4,386 303.9,374.8 				"/>
			</g>
			<g id="XMLID_1492_">
				<polygon id="XMLID_1493_" class="st5" points="326.7,381.5 357.6,381.5 349.5,366.6 319.8,366.6 				"/>
			</g>
			<g id="XMLID_1490_">
				<polygon id="XMLID_1491_" class="st5" points="365.1,391.1 324.1,391.1 321.9,386.1 362.4,386.1 				"/>
			</g>
			<g id="XMLID_1488_">
				<polygon id="XMLID_1489_" class="st1" points="127.2,437.5 46.3,393.4 54.2,390 135.2,433.2 				"/>
			</g>
			<g id="XMLID_1486_">
				<polygon id="XMLID_1487_" class="st1" points="-34.1,451.6 -45.3,450.9 -10.6,395.7 -0.7,396.2 				"/>
			</g>
			<g id="XMLID_1484_">
				<polygon id="XMLID_1485_" class="st1" points="175.3,387.9 112.9,346.4 120.4,344.2 183.2,385.2 				"/>
			</g>
			<g id="XMLID_1482_">
				<polygon id="XMLID_1483_" class="st5" points="298.8,409 272.5,409 270.2,401.3 296.1,401.3 				"/>
			</g>
			<g id="XMLID_1480_">
				<polygon id="XMLID_1481_" class="st5" points="327.8,403.6 325.6,416.9 353.3,416.9 346.3,405.1 				"/>
			</g>
			<g id="XMLID_1478_">
				<polygon id="XMLID_1479_" class="st5" points="10.3,388 -42.3,388 -37.4,377.9 13.9,377.9 				"/>
			</g>
			<g id="XMLID_1476_">
				<polygon id="XMLID_1477_" class="st5" points="63.1,355.8 33.1,372.6 60.5,379.1 82.1,359.3 				"/>
			</g>
			<g id="XMLID_1474_">
				<path id="XMLID_1475_" class="st6" d="M29.5,444.7L5.1,440l124.5-132.2c13.2-14,43.8-23.4,80.3-25.6l109-6.4l6.4,5.9l-111.2,6.7
					c-30.8,1.8-56.2,9.9-66.5,21.7L29.5,444.7z"/>
			</g>
			<g id="XMLID_1472_">
				<polygon id="XMLID_1473_" class="st6" points="40.2,473.2 14.4,467.6 196.4,264.9 212.3,266.7 				"/>
			</g>
			<g id="XMLID_1469_">
				<path id="XMLID_1471_" class="st6" d="M121.6,286c-32.3,0-63.5-2.5-91-7.2l-49-8.4l10-5l48.3,8.1c35.2,5.9,76.4,7.8,117.4,5.3
					l166.1-10l6.5,5.6l-169.4,10.5C147.5,285.6,134.5,286,121.6,286z"/>
			</g>
			<g id="XMLID_1464_">
				<g id="XMLID_1467_">
					<polygon id="XMLID_1468_" class="st5" points="135,372.6 139.2,376.6 153,374.8 147.2,370.6 					"/>
				</g>
				<g id="XMLID_1465_">
					<polygon id="XMLID_1466_" class="st5" points="145.1,369.1 138.1,364 127.8,365.7 133.3,371 					"/>
				</g>
			</g>
		</g>
		<use xlink:href="#XMLID_1462_"  style="overflow:visible;fill:none;stroke:#CCCCCC;stroke-miterlimit:10;"/>
	</g>
	<polygon class="st7" points="10.8,272.3 -60.5,413.9 359.4,413.9 288.1,272.3 	"/>
	<path id="XMLID_1449_" class="st8" d="M155.8,147.2c-36.2,0-65.6,33.6-65.6,74.4c0,6.6,0.8,11.4,2.2,19.4h0l0-0.4
		c1.3,5.5,3.1,10.5,5.5,15.4l57.3,126.1L213,257.2c5.3-10.7,8.3-23,8.3-36C221.3,180.3,192,147.2,155.8,147.2z M155.8,261.2
		c-20.7,0-37.5-18.9-37.5-42.3s16.8-42.3,37.5-42.3s37.5,18.9,37.5,42.3S176.5,261.2,155.8,261.2z"/>
</g>
</svg>
