<?xml version="1.0" encoding="utf-8"?>
<!-- Generator: Adobe Illustrator 19.0.0, SVG Export Plug-In . SVG Version: 6.00 Build 0)  -->
<svg version="1.1" id="Capa_1" xmlns="http://www.w3.org/2000/svg" xmlns:xlink="http://www.w3.org/1999/xlink" x="0px" y="0px"
	 viewBox="-65 66.1 428.9 428.9" style="enable-background:new -65 66.1 428.9 428.9;" xml:space="preserve">
<style type="text/css">
	.st0{fill:#94C749;}
	.st1{fill:#63B6D3;}
	.st2{fill:#A7C1B3;}
	.st3{fill:#80968B;}
	.st4{fill:#315A68;}
	.st5{fill:#4A849F;}
	.st6{fill:#769939;}
	.st7{fill:#D3F4E3;}
	.st8{fill:#4188AB;}
	.st9{fill:#AB8941;}
	.st10{fill:#E80000;}
	.st11{fill:#AD5C44;}
	.st12{fill:#9F0000;}
</style>
<g>
	<path class="st0" d="M297.8,312.4c0.4,0.3,0.8,0.6,1.2,1c19.5,19.6,39,39.2,58.5,58.7c0.3,0.4,0.6,0.9,1.2,0.8c0,0.1,0,0.3,0,0.4
		c-26.7,8.2-53.5,16.3-80.2,24.5c-0.4-0.5-0.7-1-1.1-1.4c-19.4-19.4-38.8-38.8-58.2-58.2c-0.6-0.6-1.3-1.3-2.3-1.2
		c0-0.1,0-0.3,0-0.4c0.7,0.1,1.4-0.1,2.2-0.3c12.3-3.7,24.5-7.4,36.8-11.2C269.9,320.9,283.8,316.7,297.8,312.4z"/>
	<path class="st1" d="M158.3,384.4c-5,1.4-10.2,2.1-15.3,3c-18.6,3.5-37.3,6.9-55.9,10.4c-5.5,1-11,2-16.5,3.1
		c-1.5,0.3-2-0.5-2.8-1.3c-19.1-19.1-38.1-38.3-57.2-57.4c-0.7-0.7-1.3-1.4-2-2.1c4.2-0.8,8.3-1.7,12.5-2.4
		c18.7-3.5,37.3-6.9,56-10.4c6.8-1.3,13.7-2.6,20.5-3.9c0.2,0,0.3,0.1,0.5,0.1c0.2,0.1,0.3,0.2,0.5,0.3l0,0c0.4,0.5,0.7,1,1.1,1.4
		c10.4,10.6,21.1,20.8,31.3,31.6c5.7,6.1,11.8,11.9,17.7,17.8C151.9,377.9,155.1,381.1,158.3,384.4z"/>
	<path class="st2" d="M-4.2,327.1c-0.5-0.4-0.9-0.7-1.4-1.1C-25,306.5-44.4,287-63.8,267.6c-0.3-0.3-0.6-0.6-1.2-1.3
		c3.5-0.7,6.8-1.3,10-2c25.9-4.8,51.8-9.6,77.7-14.4c0.7-0.1,1.4-0.1,2.2-0.2c0.1,1.1,1,1.6,1.6,2.2c18.8,18.8,37.6,37.6,56.4,56.4
		c0.6,0.6,1.4,1.1,1.6,2c-12.9,2.4-25.8,4.8-38.7,7.3C29.2,320.8,12.5,323.9-4.2,327.1z"/>
	<path class="st3" d="M84.5,310.4c-0.2-0.9-1-1.4-1.6-2c-18.8-18.8-37.6-37.6-56.4-56.4c-0.7-0.7-1.6-1.1-1.6-2.2
		c7.1,0.8,14.3,1.5,21.4,2.3c12.3,1.4,24.6,2.8,37,4.2c14.8,1.7,29.6,3.4,44.4,5.1c2.9,0.3,5.8,0.7,8.7,1
		c9.5,17,19.7,33.6,27.8,51.3c0.8,1.9,1.4,3.8,2.1,5.8c-6.3-0.6-12.5-1.2-18.8-1.9c-8.5-0.9-17-2-25.5-3c-7.2-0.8-14.4-1.8-21.6-2.5
		c-5-0.5-10-1.5-15.1-1.5C85.1,310.6,84.8,310.5,84.5,310.4z"/>
	<path class="st4" d="M85.4,310.6c5.1,0,10.1,1,15.1,1.5c7.2,0.7,14.4,1.6,21.6,2.5c8.5,1,17,2,25.5,3c6.3,0.7,12.5,1.3,18.8,1.9
		c0.9,2.2,1.5,4.6,1.6,7c0,0.7,0,1.5,0.9,1.5c1,0,0.8-0.8,0.9-1.4c0.3-2.2,0.6-4.3,1.4-6.4c9.1,1.1,18.3,2.2,27.4,3.1
		c1.9,0.2,4,1.3,6,0.2c0.1,0,0.3,0,0.4,0c0,0.9,0.8,1.4,1.3,1.9c3.1,3.1,6.2,6.2,9.3,9.3c0.6,0.6,1.3,1,1.3,1.9c0,0.1,0,0.3,0,0.4
		c-2.5-0.3-4.9-0.6-7.4-0.9c-5.8-0.7-11.6-1.4-17.4-2c-5.2-0.5-10.4-1.5-15.7-1.6c-0.1-0.1-0.2-0.1-0.2-0.2c0.1,0.1,0.1,0.2,0.2,0.2
		c5.6,5.8,11.2,11.6,16.9,17.4c13.6,13.7,27.3,27.4,41,41.1c0.6,0.6,1.2,1.3,1.8,1.9c-5.3-0.6-10.6-1.1-15.9-1.7
		c-6.3-0.7-12.6-1.5-18.9-2.2c-0.1-0.2-0.2-0.4-0.4-0.5c-19.7-19.8-39.4-39.6-59.1-59.4c-0.7-0.7-1.4-1-2.3-1.1
		c-7.1-0.8-14.3-1.8-21.4-2.5c-6.4-0.6-12.8-1.8-19.3-1.9c0,0,0,0,0,0c0-0.3-0.2-0.3-0.5-0.3c-0.2,0-0.3-0.1-0.5-0.1
		c-0.6-0.7-1.3-1.4-1.9-2.1C92.4,317.7,88.7,314.4,85.4,310.6z"/>
	<path class="st5" d="M98.7,323.8c6.5,0.1,12.8,1.3,19.3,1.9c7.2,0.7,14.3,1.7,21.4,2.5c0.9,0.1,1.6,0.4,2.3,1.1
		c19.7,19.8,39.4,39.6,59.1,59.4c0.2,0.2,0.3,0.4,0.4,0.5c-8.5-1-17.1-1.9-25.6-2.9c-5.8-0.6-11.5-1.3-17.3-2
		c-3.2-3.2-6.3-6.5-9.5-9.7c-5.9-5.9-12-11.7-17.7-17.8c-10.2-10.8-20.9-21-31.3-31.6C99.3,324.8,99,324.3,98.7,323.8z"/>
	<path class="st6" d="M236,393.2c-0.6-0.6-1.2-1.3-1.8-1.9c-13.7-13.7-27.4-27.4-41-41.1c-5.7-5.7-11.3-11.6-16.9-17.4l0.1-0.1
		c5.3,0,10.5,1.1,15.7,1.6c5.8,0.6,11.6,1.3,17.4,2c2.5,0.3,4.9,0.6,7.4,0.9c1-0.1,1.6,0.5,2.3,1.2c19.4,19.4,38.8,38.8,58.2,58.2
		c0.4,0.4,0.7,0.9,1.1,1.4c-3.1,0.4-6.1-0.4-9.1-0.7c-10.1-1-20.2-2.3-30.3-3.4C238,393.5,237,393.3,236,393.2z"/>
	<path class="st4" d="M85.4,310.6c3.3,3.8,7,7.1,10.5,10.7c0.7,0.7,1.3,1.4,1.9,2.1c-6.8,1.3-13.7,2.7-20.5,3.9
		c-18.7,3.5-37.3,6.9-56,10.4c-4.2,0.8-8.3,1.6-12.5,2.4c-4.3-4.4-8.7-8.8-13-13.2c16.7-3.1,33.4-6.2,50.1-9.4
		c12.9-2.4,25.8-4.8,38.7-7.3C84.8,310.5,85.1,310.6,85.4,310.6z"/>
	<path class="st7" d="M205.1,323.5c-0.1,0-0.3,0-0.4,0c-5.9-5.9-11.9-11.7-17.8-17.7c-2.1-2.1-4.1-4.2-6.1-6.3
		c3.8-7.6,8.2-15,12.4-22.4c6.5-11.5,13-23.1,18.8-34.9c3.6-1.1,7.2-2.1,10.7-3.3c1.1-0.4,1.9-0.2,2.7,0.6
		c19.5,19.6,39,39.1,58.5,58.7c0.4,0.4,0.8,0.7,0.7,1.3c-0.6,0.1-1.3,0.2-1.9,0.4C256.8,307.8,230.9,315.7,205.1,323.5z"/>
	<path class="st4" d="M205.1,323.5c25.8-7.9,51.7-15.7,77.5-23.6c0.6-0.2,1.3-0.3,1.9-0.4c0.3,0.1,0.7,0.2,1,0.4
		c4.1,4.1,8.2,8.3,12.3,12.4c-13.9,4.3-27.9,8.5-41.8,12.8c-12.3,3.7-24.5,7.4-36.8,11.2c-0.7,0.2-1.4,0.4-2.2,0.3
		c0-0.9-0.8-1.4-1.3-1.9c-3.1-3.1-6.2-6.2-9.3-9.3C205.9,324.9,205.1,324.5,205.1,323.5z"/>
	<path class="st3" d="M180.4,299.7c2.1,2.1,4.1,4.2,6.3,6.2c6.1,5.8,12.2,11.5,18.3,17.2c-2,1.1-4,0.1-6,0
		c-9.2-0.7-18.3-1.6-27.5-2.5C173.6,313.2,176.9,306.4,180.4,299.7z"/>
	<path class="st8" d="M98.2,323.6c0.2,0,0.4,0,0.5,0.3C98.5,323.8,98.4,323.7,98.2,323.6z"/>
	<path class="st9" d="M176.3,332.8c-0.1-0.1-0.1-0.2-0.2-0.2C176.2,332.6,176.3,332.6,176.3,332.8
		C176.4,332.7,176.3,332.8,176.3,332.8z"/>
	<path class="st10" d="M151.6,207.3c-0.1,0.3-0.2,0.6-0.4,0.9C150.5,207.6,151,207.4,151.6,207.3z"/>
	<path class="st11" d="M177.9,160.8c-1.1-0.2-2.3,0.1-3.3-0.8c-3.8,0-7.7,0-11.5,0c-0.2,0.6-0.7,0.4-1.1,0.5
		c-12.4,1.7-23,7.1-31.4,16.4c-10.2,11.3-15.1,24.6-13.4,39.9c0.8,7,3.6,13.4,6.4,19.9c3.8,8.8,8.5,17.2,12.9,25.8
		c9.5,17,19.7,33.6,27.8,51.3c0.8,1.9,1.4,3.8,2.1,5.8c0.9,2.2,1.5,4.6,1.6,7c0,0.7,0,1.5,0.9,1.5c1,0,0.8-0.8,0.9-1.4
		c0.3-2.2,0.6-4.3,1.4-6.4c2.3-7.3,5.8-14,9.4-20.7c3.8-7.6,8.2-15,12.4-22.4c6.5-11.5,13-23.1,18.8-34.9c1.5-3.4,3-6.9,4.4-10.3
		c2.6-6.7,4.9-13.4,4.8-20.7C220.7,186.3,202.5,165.1,177.9,160.8z M168.9,230.2c-10.5,0-19.1-8.5-19.1-19.1
		c0-10.5,8.5-19.1,19.1-19.1c10.5,0,19.1,8.5,19.1,19.1C188,221.6,179.4,230.2,168.9,230.2z M218.8,206.8c0.7,0.7,0.3,1.5,0.4,2.3
		C217.6,208.6,218.5,207.6,218.8,206.8z"/>
	<path class="st10" d="M218.8,206.8c-0.2,0.8-1.2,1.8,0.4,2.3C219.1,208.3,219.4,207.5,218.8,206.8z"/>
	<path class="st12" d="M187.2,209.2c0.1-0.5-0.3-0.5-0.7-0.5c0,0.3,0,0.6,0,0.9C186.8,209.4,187.1,209.3,187.2,209.2z"/>
</g>
</svg>
