<?xml version="1.0" encoding="utf-8"?>
<!-- Generator: Adobe Illustrator 19.0.0, SVG Export Plug-In . SVG Version: 6.00 Build 0)  -->
<svg version="1.1" id="Capa_1" xmlns="http://www.w3.org/2000/svg" xmlns:xlink="http://www.w3.org/1999/xlink" x="0px" y="0px"
	 viewBox="-405 141.9 310 348.1" style="enable-background:new -405 141.9 310 348.1;" xml:space="preserve">
<style type="text/css">
	.st0{fill:#315A68;}
</style>
<g id="XMLID_85_">
	<path id="XMLID_434_" class="st0" d="M-380,487.4c-3.3-1.8-3.9-4.8-3.9-8.3c0.2-19.8,2-39.4,7.2-58.6c2.5-9.4,5.8-18.4,10.2-27.1
		c0.8-1.6,1.3-2.5,2.6-0.3c2.1,3.4,4.3,6.8,6.9,9.8c3.8,4.3,8.7,7.2,14.1,9.2c16.6,6.3,31.5,2.2,45.3-7.9c5.5-4,10.2-8.8,14.7-13.9
		c4.7-5.3,5.9-11.3,3.4-18.1c-0.3-0.7-0.9-1.4-0.4-2.6c5.3,1.5,10.6,3,16.1,3.9c24.4,4.1,47.8,1.1,70-10.1
		c6.9-3.5,13.2-8.1,18.7-13.7c4.3-4.5,5.8-4.7,11.1-1.3c15.7,10,28.1,23.1,37.7,39c13.2,21.9,19.8,45.9,22.2,71.2
		c0.6,6.5,1,12.9,1.2,19.4c0.1,6.4-1.6,8.3-7.9,8.3c-18.9,0.1-37.8,0.1-56.7,0.2c-35.3,0.1-70.5,0.3-105.8,0.4
		c-1.2,0-2.4-0.2-3.5,0.3C-311.3,487.4-345.7,487.4-380,487.4z"/>
	<path id="XMLID_431_" class="st0" d="M-243.7,359.1c-17.3-0.2-32.2-6.5-45.3-17.4c-14.9-12.4-25-28.1-31.4-46.3
		c-0.9-2.7-2.3-5.1-3.7-7.5c-4-6.6-7.4-13.5-8.9-21.1c-1.2-5.8,0-11.3,4.2-15.8c1.1-1.2,1.4-2.4,1.4-3.9c0-12.9,0.3-25.8,2.3-38.5
		c2-12.6,5.5-24.7,12.7-35.5c7.9-11.8,18.8-19.5,32.2-23.6c21.9-6.6,44.1-6.9,66.3-1.7c13.8,3.3,25.7,10.3,34.6,21.7
		c7.7,9.9,11.9,21.2,14.5,33.4c3,14.3,3.5,28.8,3.6,43.3c0,1.7,0.4,3.1,1.6,4.4c5.5,6,5.6,13.2,3,20.3c-2.3,6.5-4.7,13-8.9,18.7
		c-1.4,1.9-1.8,4.5-2.6,6.9c-7.7,21.2-20.1,38.9-39.2,51.6C-217.7,354.8-231.5,359.1-243.7,359.1z M-243.8,347.8
		c6.1,0,12-1.1,17.7-3.2c19.9-7.4,32.8-22.1,42.4-40.3c4.5-8.6,6-18.5,11.9-26.5c1.7-2.4,2.5-5.4,3.7-8.2c2.9-7,2.5-8.5-2.8-13.7
		c-1-1-1.8-1.1-3.1-0.7c-4.1,1.2-8.2,2.3-12.4,3.5c-2.3,0.6-3.9,0.1-4.8-2.2c-1.4-3.5-3-6.9-4.3-10.3c-0.6-1.4-1.3-1.7-2.7-1.4
		c-7.1,1.9-14.4,2.2-21.7,2.1c-23.6-0.3-46.6-4.7-69.6-9.8c-2.1-0.5-2.9,0.1-3.6,1.9c-2.2,5.4-4.6,10.7-6.9,16.1
		c-0.9,2-2.3,2.9-4.6,2.5c-3-0.6-5.9-1-8.9-1.4c-5.1-0.7-9,2.6-8.3,7.8c0.8,6.7,3.9,12.7,7.7,18.2c1.5,2.2,2.8,4.5,3.6,7
		c5.4,16.9,14.4,31.5,27.9,43.1C-271.6,341.8-258.7,347.5-243.8,347.8z"/>
	<path id="XMLID_189_" class="st0" d="M-397.2,279.7c0.2-10.3,4.5-19.8,14.9-26.1c8.3-4.9,17.3-6.6,26.8-6.2
		c4.9,0.2,7.3,3.4,8.9,7.4c3.6,8.9,4.6,18.4,4.8,27.9c0,1.7-0.9,2.8-2.3,3.7c-4.6,2.8-9.8,3.5-14.9,4.3c-2.8,0.5-2.8,1.6-2.2,3.7
		c4,13.8,9.7,26.9,16.2,39.7c4.4,8.7,9.3,17.2,14.1,25.6c1.1,1.9,1.8,2,3.3,0.4c3.7-3.8,8.2-6.2,13-8.5c2.7-1.3,4.9-0.8,7.2,0.6
		c10.6,6.5,15.5,16.3,16.5,28.4c0.1,1-0.4,1.8-1,2.5c-7,8.1-14.3,15.8-23.9,20.9c-10.7,5.7-21.3,4-29.5-5.1
		c-14.3-16-26-33.8-34.9-53.4c-6.4-14.1-11.3-28.7-14.2-43.9C-395.8,294.9-396.8,288.1-397.2,279.7z"/>
</g>
</svg>
