<?xml version="1.0" encoding="utf-8"?>
<!-- Generator: Adobe Illustrator 19.0.0, SVG Export Plug-In . SVG Version: 6.00 Build 0)  -->
<svg version="1.1" id="Capa_1" xmlns="http://www.w3.org/2000/svg" xmlns:xlink="http://www.w3.org/1999/xlink" x="0px" y="0px"
	 viewBox="-529 1314.1 428.9 428.9" style="enable-background:new -529 1314.1 428.9 428.9;" xml:space="preserve">
<style type="text/css">
	.st0{fill:#315A68;}
</style>
<g id="XMLID_8_">
	<path id="XMLID_33_" class="st0" d="M-247.3,1612.2c-13-6.7-26.8-11.3-40.4-16.3c-5.1-1.8-6.5-6.7-3-11c5.7-7,9.8-14.9,12.4-23.5
		c0.5-1.5,1.1-2.7,2.6-3.4c15.8-8.3,21.2-22.3,20.8-39.2c-0.2-6.6-2.7-12.3-9.2-15.2c-1.8-0.8-2-1.9-1.8-3.6
		c0.9-7.9,0-15.8-0.8-23.6c-2.4-23.2-17.3-41.5-39.6-48.1c-11.4-3.4-22.9-3.7-34.6-2.3c-23.6,3-41.4,18.2-47.7,41.1
		c-2.9,10.6-3.3,21.5-2.8,32.5c0.1,2.1-0.2,3.3-2.4,4.4c-4.7,2.1-7.5,6.2-8,11.1c-1.9,16.6,2.6,33.5,20,42.7
		c1.2,0.7,2.2,1.4,2.7,2.9c2.7,9.1,7.1,17.3,13.1,24.8c2.9,3.6,1.1,8.8-3.2,10.3c-11.1,4-22.1,8-33,12.6
		c-34.9,14.7-53.5,40.9-56.1,78.6c-0.4,5.7,0.1,6.6,5.3,8.8c7.9,3.3,16.1,5.6,24.4,7.4c32.9,7.2,66.4,8.5,98.2,9.1
		c15-0.1,28.3-0.6,41.6-1.4c13.4-0.8,26.8-2,40.1-4c15.5-2.3,30.8-5.5,45.5-11.4c3.2-1.3,4.7-3.1,4.5-6.8
		c-0.6-14.2-4.1-27.8-10.3-40.5C-217.3,1631.5-231.1,1620.6-247.3,1612.2z"/>
	<path id="XMLID_27_" class="st0" d="M-113.3,1603.3c-3.1-32.6-18.5-56.9-48.4-71.5c-12.9-6.3-26.3-11.1-39.8-15.9
		c-5.2-1.8-6.6-6.9-3.1-11.3c5.6-7.1,9.8-14.8,12.3-23.5c0.4-1.5,1.2-2.6,2.7-3.4c17.2-9.1,21.9-25.3,20.3-42.2
		c-0.5-5.1-3.1-9.4-8-11.6c-2.3-1.1-2.7-2.4-2.6-4.6c0.4-7.3,0.2-14.5-0.7-21.8c-3-23.6-14.6-40.6-37.6-48.6
		c-15.2-5.3-30.8-5.4-46.3-0.9c-17,4.9-29.4,15.3-36.1,32c-3.3,8.1-4.4,16.7-5,25.3c-0.5,6.5-1.2,5.2,5.1,6.4
		c24.3,4.9,41.9,17.9,50.6,41.7c4.1,11.2,5.5,22.9,4.9,34.8c-0.1,2,0.3,3.5,2,4.8c3.2,2.5,5.3,6,6.6,9.9
		c6.6,18.7-1.2,42.6-17.6,53.8c-2.1,1.4-4.3,2.8-5.2,5.3c-2.6,7.1-5.8,13.8-10.7,20c1.4,0.6,2.5,1.2,3.6,1.6c8,3.2,16.1,6.4,24,9.7
		c18.5,7.8,35.5,17.8,46.8,35.2c1,1.5,2.2,1.6,3.8,1.5c6.4-0.7,12.7-1.2,19.1-2c17.1-2.1,34-5,50.2-10.8
		C-112.4,1613.7-112.3,1613.6-113.3,1603.3z"/>
	<path id="XMLID_10_" class="st0" d="M-472,1513v-68.2c0-24.5,18.2-39.8,42.7-39.8h50.3v20.2l48.2-33.6L-379,1358v26h-57.7
		c-29.5,0-59.3,23.9-59.3,53.4v75.6h-20.2l33.6,48.2l33.6-48.2H-472z"/>
</g>
</svg>
