<?xml version="1.0" encoding="utf-8"?>
<!-- Generator: Adobe Illustrator 19.0.0, SVG Export Plug-In . SVG Version: 6.00 Build 0)  -->
<svg version="1.1" id="Capa_1" xmlns="http://www.w3.org/2000/svg" xmlns:xlink="http://www.w3.org/1999/xlink" x="0px" y="0px"
	 viewBox="-265 66.1 428.9 428.9" style="enable-background:new -265 66.1 428.9 428.9;" xml:space="preserve">
<style type="text/css">
	.st0{fill:#FFFFFF;}
</style>
<g id="XMLID_7_">
	<path id="XMLID_389_" class="st0" d="M146.5,465.3c-3.5,1.7-7.3,1.6-11.1,1.6c-70.1,0-140.1,0-210.2,0c-11.7,0-11.7,0-11.7-11.6
		c0-70.4,0.1-140.7-0.2-211.1c0-8,2.1-10.5,10.3-10.4c70.9,0.3,141.9,0.2,212.8,0.2c3.4,0,7-0.6,10.1,1.8
		C146.5,312.3,146.5,388.8,146.5,465.3z M77.8,422.8c3.8,0,7.6-0.2,11.4,0c4.7,0.3,6.9-0.3,5-6.2c-14-44.3-27.7-88.8-41.3-133.2
		c-1.2-4-3.1-5.6-7.3-5.4c-9.6,0.3-19.3,0.5-28.8,0c-6.2-0.3-9,1.6-10.8,7.9c-12.3,41.2-25.1,82.3-37.7,123.4
		c-4.2,13.6-4.1,13.6,9.8,13.6c20,0,20,0,25.4-19.3c5.1-18.1,5.1-18.1,23.8-18.1c22.3,0,22.3,0,28.6,21.2
		C60.5,422.8,60.5,422.8,77.8,422.8z"/>
	<path id="XMLID_388_" class="st0" d="M-98.7,228.9c0-2.9,2.2-4.6,3.7-6.7c10.7-15.5,18.6-32.3,22.1-50.9c0.5-2.8,0-6.3,4.5-5.6
		c6.6,1.1,6.7-2.9,6.8-7.8c0.1-18.4,0.2-18.4-18-18.4c-9.3,0-18.7-0.3-28,0.1c-5.8,0.3-8-1.6-7.1-7.3c0.9-5.7-1.4-8.1-7.2-7.4
		c-2.9,0.3-5.9,0.3-8.7,0c-6.8-0.8-10.7,1.1-9.5,8.8c0.7,4.6-1.4,6-6,5.9c-13.4-0.3-26.9,0.1-40.3-0.2c-5.2-0.1-7,1.2-7,6.7
		c-0.2,19.5-0.4,19.5,18.8,19.5c23.6,0,47.3,0.2,70.9-0.1c6.1-0.1,7.4,1.5,5.8,7.5c-4.3,16.1-12.6,29.9-22.4,43.2
		c-3.2,4.3-4.6,2.4-6.5-1c-7.2-12.7-13.7-25.7-17.7-39.8c-1.6-5.7-4.2-6.9-9.9-5.3c-16.5,4.6-16.7,4.3-10.5,20.8
		c5.3,14.2,11.4,28.2,20.1,40.6c4.2,6,2.9,9.1-2.1,13.4c-11.3,9.6-22.5,19.5-35.1,27.5c-5.2,3.3-4.8,5.7-1.9,10.1
		c9.3,14.6,9.1,14.7,23.6,4.3c10.4-7.5,20.4-15.6,29.7-24.4c3.7-3.5,6.1-4.5,9.7,0c2.7,3.4,6,6.7,9.7,8.8
		c10.1,5.6,12.2,14.2,11.2,24.8c-0.8,8.4-0.4,16.9-0.1,25.4c0.2,4.7-1.6,5.9-6.1,5.9c-45-0.1-89.9-0.1-134.9,0
		c-2.4,0-4.6-0.5-6.5-1.9c0-76.5,0-153,0-229.5c2.9-1.4,6.1-1.6,9.3-1.6c71.1,0,142.3,0.1,213.4-0.1c8.1,0,10.5,2.4,10.4,10.5
		c-0.4,36.2-0.3,72.3,0,108.5c0.1,6.4-1.4,8.6-8.2,8.4c-18.4-0.5-36.7,0.2-55.1-0.3c-8.3-0.2-15.3,1.6-21.1,7.7L-98.7,228.9z"/>
	<path id="XMLID_387_" class="st0" d="M-126.9,414.5c-19.6,7-33.9-6.7-47.5-22.4c-2.1-2.4-3.2-4.5-3.2-7.7
		c0.1-13.7,0.3-27.4-0.1-41.1c-0.1-5.3,2.1-6.5,6.7-6.1c8,0.7,18.5-3.4,23.4,1.8c3.9,4,1,14.4,1.4,21.9c0.4,7.2-3.2,16.5,1.5,21
		c4.6,4.4,13.9,1.1,21.1,1.3c8.2,0.2,16.3,0.2,24.5,0c4-0.1,5.8,1.1,5.6,5.4c-0.3,7-0.2,14,0,21c0.1,3.9-1.5,5-5.1,4.9
		C-106.7,414.4-114.9,414.5-126.9,414.5z"/>
	<path id="XMLID_272_" class="st0" d="M-98.8,228.7c-1.1,5.9-1.9,11.8-1.3,18.3c-10.8-5.9-9.7-7,1.5-18.1
		C-98.7,228.9-98.8,228.7-98.8,228.7z"/>
	<path id="XMLID_241_" class="st0" d="M28.3,303.9c5.2,18.3,10.1,35.2,15,52.1c1,3.4-0.1,5-3.7,4.7c-0.3,0-0.6,0-0.9,0
		c-8.1-0.4-19,3.4-23.5-1.5c-3.7-4.1,2.9-14.3,4.7-21.8C22.6,326.8,25.2,316.1,28.3,303.9z"/>
</g>
</svg>
