<?xml version="1.0" encoding="utf-8"?>
<!-- Generator: Adobe Illustrator 19.0.0, SVG Export Plug-In . SVG Version: 6.00 Build 0)  -->
<svg version="1.1" id="Capa_1" xmlns="http://www.w3.org/2000/svg" xmlns:xlink="http://www.w3.org/1999/xlink" x="0px" y="0px"
	 viewBox="-529 1314.1 428.9 428.9" style="enable-background:new -529 1314.1 428.9 428.9;" xml:space="preserve">
<style type="text/css">
	.st0{fill:#FFFFFF;}
</style>
<g id="XMLID_111_">
	<path id="XMLID_112_" class="st0" d="M-491.3,1563.9c-0.5-1.9,1.1-2.5,2.3-3.3c9.5-7,19-14.1,28.6-20.8c2.5-1.8,3.6-3.7,3.1-6.6
		c-0.2-1.6-0.4-3.3-0.1-4.8c1.4-6.7-1.6-10.7-7.2-14.3c-8.5-5.4-16.3-11.8-24.5-17.6c-2.1-1.5-2.5-3-2-5.4
		c4.8-21.8,13.1-42.2,25.3-60.9c1.4-2.1,2.7-2.8,5.2-2.4c12,2,24.1,3.7,36.1,5.8c2.2,0.4,3.5,0,4.9-1.6c1.7-2,3.4-4.3,5.6-5.7
		c4.7-3,4.7-6.9,3.8-11.7c-2-10.8-3.5-21.7-5.3-32.6c-0.3-2.1,0.4-3.1,2-4.2c19-12.3,39.5-20.9,61.7-25.6c2.2-0.5,3.6,0,5,1.9
		c7,9.8,14.3,19.5,21.3,29.3c1.4,2,2.9,2.8,5.3,2.6c2.8-0.2,5.7-0.5,8.4,0c4.6,0.7,7.2-1.2,9.8-4.9c6.2-9.1,13-17.8,19.3-26.8
		c1.5-2.1,3-2.6,5.4-2.1c22,4.8,42.4,13.2,61.3,25.5c2,1.3,2.5,2.5,2.1,4.9c-2.1,12.2-3.9,24.4-5.8,36.5c-0.3,1.8,0,3.1,1.4,4.2
		c1.3,1,2.6,2,3.5,3.3c4.6,7.3,11,7.6,18.6,5.8c9.1-2,18.5-3,27.8-4.6c2.3-0.4,3.6,0.3,4.9,2.2c12.3,19,20.8,39.6,25.5,61.7
		c0.5,2.2-0.2,3.4-1.9,4.6c-9.7,7-19.2,14.1-29,21.1c-2.4,1.7-3.3,3.5-3,6.3c0.3,2.4,0.5,4.9,0.1,7.2c-1,5,1.3,7.8,5.2,10.4
		c9,6.1,17.6,12.8,26.4,19.1c2,1.4,2.7,2.7,2.2,5.3c-4.8,22-13.2,42.4-25.5,61.3c-1.2,1.9-2.3,2.7-4.8,2.3
		c-12.2-2.1-24.4-3.9-36.5-5.9c-2-0.3-3.4,0.1-4.6,1.6c-0.7,0.8-1.3,1.8-2.2,2.3c-8,5.1-8.7,12.1-6.6,20.7c2.1,8.8,2.9,18,4.5,27
		c0.4,2-0.1,3.1-1.8,4.3c-19.2,12.5-40,21.1-62.4,25.9c-2.1,0.4-3.2-0.3-4.3-1.9c-7.1-9.8-14.3-19.5-21.3-29.3
		c-1.5-2.1-3-3.2-5.6-2.8c-1.7,0.3-3.6,0.5-5.2,0.1c-6.9-1.5-11,1.5-14.7,7.2c-5.4,8.5-11.8,16.3-17.6,24.5c-1.4,1.9-2.6,2.5-5,2
		c-21.9-4.7-42.2-13.1-61-25.1c-2.4-1.5-3.1-3.1-2.6-5.9c2-12,3.8-24.1,5.8-36.1c0.3-1.9-0.2-3-1.5-4.2c-1.8-1.6-3.9-3.1-5.2-5
		c-3.4-5.1-7.7-5.7-13.4-4.5c-10.5,2.1-21.2,3.4-31.8,5.2c-1.6,0.3-2.7,0.1-3.7-1.4c-12.7-19.3-21.3-40.2-26.1-62.7
		C-491.2,1564.8-491.3,1564.4-491.3,1563.9z M-314.7,1450.8c-42.1-0.2-77.2,34.4-77.5,76.4c-0.3,43,34.1,78,76.8,78.3
		c42.6,0.2,77.6-34.3,77.9-76.8C-237.3,1485.9-271.8,1451-314.7,1450.8z"/>
</g>
</svg>
