<?xml version="1.0" encoding="utf-8"?>
<!-- Generator: Adobe Illustrator 19.0.0, SVG Export Plug-In . SVG Version: 6.00 Build 0)  -->
<svg version="1.1" id="Capa_1" xmlns="http://www.w3.org/2000/svg" xmlns:xlink="http://www.w3.org/1999/xlink" x="0px" y="0px"
	 viewBox="-548.9 1314.7 428.9 428.9" style="enable-background:new -548.9 1314.7 428.9 428.9;" xml:space="preserve">
<style type="text/css">
	.st0{fill:none;}
	.st1{fill:#C4C4C4;}
	.st2{fill:#80968B;}
	.st3{fill:#F2F2F2;}
	.st4{fill:#AD5C44;}
	.st5{fill:#315A68;}
</style>
<g>
	<path class="st0" d="M-309.8,1369.7c0.2-0.1,0.4-0.2,0.5-0.3C-309.4,1369.5-309.6,1369.6-309.8,1369.7z"/>
	<path class="st0" d="M-303.2,1366.9c0.1,0,0.2,0,0.3-0.1C-303,1366.9-303.1,1366.9-303.2,1366.9z"/>
	<path class="st0" d="M-303.8,1367.1c0.1,0,0.2-0.1,0.3-0.1C-303.6,1367-303.7,1367-303.8,1367.1z"/>
	<path class="st0" d="M-302.4,1366.7c0.1,0,0.1,0,0.2,0C-302.2,1366.7-302.3,1366.7-302.4,1366.7z"/>
	<path class="st0" d="M-302.7,1366.8c0,0-0.1,0-0.1,0c0.1,0,0.2,0,0.2-0.1C-302.6,1366.8-302.6,1366.8-302.7,1366.8z"/>
	<path class="st0" d="M-302.1,1366.7c0.1,0,0.1,0,0.1,0C-302,1366.7-302,1366.7-302.1,1366.7z"/>
	<path class="st0" d="M-301.8,1366.6C-301.8,1366.6-301.9,1366.6-301.8,1366.6C-301.9,1366.6-301.8,1366.6-301.8,1366.6z"/>
	<path class="st0" d="M-304.5,1367.3c0.1,0,0.3-0.1,0.4-0.1C-304.2,1367.2-304.4,1367.2-304.5,1367.3z"/>
	<path class="st0" d="M-304.8,1367.4C-304.8,1367.4-304.8,1367.4-304.8,1367.4C-304.8,1367.4-304.8,1367.4-304.8,1367.4
		C-304.8,1367.4-304.8,1367.4-304.8,1367.4z"/>
	<path class="st0" d="M-308.9,1369.2c0.2-0.1,0.4-0.2,0.5-0.3C-308.5,1369-308.7,1369.1-308.9,1369.2z"/>
	<path class="st0" d="M-306.2,1367.9c0,0,0.1,0,0.1,0C-306.2,1367.9-306.2,1367.9-306.2,1367.9z"/>
	<path class="st0" d="M-307.8,1368.6c-0.1,0-0.1,0.1-0.2,0.1c0.1-0.1,0.2-0.1,0.3-0.2C-307.7,1368.6-307.7,1368.6-307.8,1368.6z"/>
	<path class="st1" d="M-286.9,1404.8v7.7v196.2c0,13.4,7.4,19,12.4,21.2l8,1.5c0,0,11.6-0.6,11.6-32.1v-54.7v-118.8c0-0.5,0-1,0-1.5
		c0-0.2,0-0.3,0-0.5c0-0.3,0-0.6,0.1-0.9c0-0.2,0.1-0.4,0.1-0.6c0-0.3,0.1-0.5,0.1-0.8c0-0.2,0.1-0.4,0.1-0.7c0-0.2,0.1-0.4,0.1-0.6
		c0.1-0.2,0.1-0.5,0.2-0.7c0-0.2,0.1-0.4,0.1-0.5c0.1-0.2,0.1-0.5,0.2-0.7c0-0.1,0.1-0.3,0.1-0.4c0.1-0.3,0.2-0.5,0.3-0.8
		c0-0.1,0.1-0.2,0.1-0.3c0.1-0.3,0.2-0.6,0.4-0.8c0,0,0-0.1,0.1-0.1c0.6-1.2,1.2-2.3,1.9-3.2c4.4-6.1,10.9-7.7,10.9-7.7H-286.9z"/>
	<g>
		<path class="st2" d="M-227.8,1509.8v-80.7c0,0,0-9.5-3-16.6c-1.8-4.3-4.6-7.7-9.2-7.7c0,0-4.2,1.1-8.2,4.7c-0.9,0.9-1.9,1.9-2.7,3
			h0c-0.7,1-1.3,2-1.9,3.2c0,0,0,0.1-0.1,0.1c-0.1,0.3-0.3,0.6-0.4,0.8c0,0.1-0.1,0.2-0.1,0.3c-0.1,0.3-0.2,0.5-0.3,0.8
			c0,0.1-0.1,0.3-0.1,0.4c-0.1,0.2-0.2,0.5-0.2,0.7c0,0.2-0.1,0.4-0.1,0.5c-0.1,0.2-0.1,0.5-0.2,0.7c0,0.2-0.1,0.4-0.1,0.6
			c0,0.2-0.1,0.4-0.1,0.7c0,0.2-0.1,0.5-0.1,0.8c0,0.2-0.1,0.4-0.1,0.6c0,0.3-0.1,0.6-0.1,0.9c0,0.2,0,0.3,0,0.5c0,0.5,0,1,0,1.5
			v118.8h24.3h13.8C-221.7,1542.6-227.8,1535-227.8,1509.8z"/>
		<path class="st2" d="M-286.9,1608.7v-196.2v-7.7v-7.2v-5.5v-0.5c0,0,0.4-8.9-2.7-16c-0.6-1.4-1.3-2.7-2.2-3.9c-2.2-2.9-5.4-5-10-5
			c0,0,0,0-0.1,0c0,0,0,0,0,0c0,0-0.1,0-0.1,0c0,0-0.1,0-0.1,0c-0.1,0-0.1,0-0.2,0c0,0-0.1,0-0.1,0c-0.1,0-0.2,0-0.2,0.1
			c-0.1,0-0.1,0-0.2,0c-0.1,0-0.2,0-0.3,0.1c-0.1,0-0.1,0-0.2,0.1c-0.1,0-0.2,0.1-0.3,0.1c-0.1,0-0.2,0-0.2,0.1
			c-0.1,0-0.3,0.1-0.4,0.1c-0.1,0-0.2,0-0.2,0.1c0,0-0.1,0-0.1,0c-0.4,0.1-0.8,0.3-1.3,0.5c0,0-0.1,0-0.1,0
			c-0.4,0.2-0.9,0.4-1.4,0.6c-0.1,0.1-0.2,0.1-0.3,0.2c-0.1,0.1-0.2,0.1-0.4,0.2c-0.2,0.1-0.4,0.2-0.5,0.3c-0.1,0.1-0.3,0.1-0.4,0.2
			c-0.2,0.1-0.4,0.2-0.5,0.3c-0.1,0.1-0.3,0.2-0.4,0.2c-0.2,0.1-0.4,0.3-0.6,0.4c-0.1,0.1-0.2,0.2-0.4,0.3c-0.2,0.2-0.4,0.3-0.6,0.5
			c-0.1,0.1-0.2,0.2-0.3,0.3c-0.1,0.1-0.2,0.2-0.3,0.2c-0.2,0.2-0.4,0.4-0.6,0.6c0,0,0,0,0,0c-0.3,0.3-0.5,0.5-0.8,0.8
			c-0.1,0.1-0.2,0.2-0.3,0.3c-0.2,0.2-0.4,0.4-0.5,0.6c-0.1,0.1-0.2,0.2-0.3,0.4c-0.2,0.2-0.3,0.4-0.5,0.6c-0.1,0.1-0.2,0.3-0.3,0.4
			c-0.1,0.1-0.1,0.2-0.2,0.3c-0.1,0.1-0.2,0.2-0.2,0.3c-0.1,0.1-0.2,0.3-0.3,0.4c-0.1,0.2-0.3,0.5-0.4,0.7c-0.1,0.1-0.2,0.3-0.3,0.4
			c-0.1,0.3-0.3,0.5-0.4,0.8c-0.1,0.1-0.1,0.3-0.2,0.4c-0.2,0.4-0.4,0.8-0.6,1.3c0,0,0,0,0,0c-0.2,0.4-0.4,0.9-0.5,1.4
			c-0.1,0.2-0.1,0.3-0.2,0.5c-0.1,0.3-0.2,0.7-0.3,1c-0.1,0.2-0.1,0.4-0.2,0.6c-0.1,0.3-0.2,0.7-0.2,1c-0.1,0.2-0.1,0.4-0.1,0.7
			c-0.1,0.3-0.1,0.7-0.2,1c0,0.2-0.1,0.5-0.1,0.7c-0.1,0.4-0.1,0.7-0.1,1.1c0,0.2-0.1,0.5-0.1,0.7c0,0.4-0.1,0.9-0.1,1.3
			c0,0.2,0,0.4,0,0.6c0,0.7-0.1,1.3-0.1,2v19.9v6.5v26.4v26.4v26.4v26.4v26.4v22.9v3.5v26.4l-20-16l-16,12.9l-2.8,2.2l-1.1,0.9
			l-0.2,0.1l-0.2-0.1l-3-2.4l-16.8-13.4l-19.6,15.9l-0.3,0.3l-0.3-0.3l-19.6-15.7l-19.5,15.7l-0.5,0.4l-0.5-0.4l-5.1-4.1v3.9
			c0.1,0.1,0.3,0.2,0.4,0.3c0.3,0.2,0.5,0.4,0.8,0.6c1.6,1.1,3.1,2.1,4.5,3.1c11,8,14.6,13.1,14.6,19.2c0,1.3-0.2,2.6-0.6,3.9
			c2.5,0.6,5.3,0.9,8.5,0.9h54.2h4.4h2.8h66.3h20.5c0,0-2-0.3-4.7-1.5C-279.6,1627.7-286.9,1622.2-286.9,1608.7z"/>
	</g>
	<path class="st3" d="M-307.6,1368.5c0.5-0.2,1-0.4,1.4-0.6C-306.7,1368.1-307.2,1368.3-307.6,1368.5z"/>
	<path class="st3" d="M-303.5,1367c0.1,0,0.2,0,0.2-0.1C-303.3,1366.9-303.4,1367-303.5,1367z"/>
	<path class="st3" d="M-302.5,1366.8c0,0,0.1,0,0.1,0C-302.4,1366.7-302.5,1366.7-302.5,1366.8z"/>
	<path class="st3" d="M-302.2,1366.7C-302.1,1366.7-302.1,1366.7-302.2,1366.7C-302.1,1366.7-302.1,1366.7-302.2,1366.7z"/>
	<path class="st3" d="M-302.9,1366.9c0.1,0,0.1,0,0.2,0C-302.8,1366.8-302.9,1366.8-302.9,1366.9z"/>
	<path class="st3" d="M-308.3,1368.9c0.1-0.1,0.2-0.1,0.4-0.2C-308.1,1368.7-308.2,1368.8-308.3,1368.9z"/>
	<path class="st3" d="M-301.9,1366.7C-301.9,1366.7-301.9,1366.7-301.9,1366.7C-301.9,1366.7-301.9,1366.7-301.9,1366.7z"/>
	<path class="st3" d="M-309.2,1369.4c0.1-0.1,0.3-0.2,0.4-0.2C-309,1369.2-309.1,1369.3-309.2,1369.4z"/>
	<path class="st3" d="M-306.1,1367.8c0.4-0.2,0.9-0.3,1.3-0.5C-305.2,1367.5-305.7,1367.7-306.1,1367.8z"/>
	<path class="st3" d="M-304.7,1367.3c0.1,0,0.2,0,0.2-0.1C-304.6,1367.3-304.7,1367.3-304.7,1367.3z"/>
	<path class="st3" d="M-304.1,1367.1c0.1,0,0.2,0,0.2-0.1C-303.9,1367.1-304,1367.1-304.1,1367.1z"/>
	<g>
		<path class="st3" d="M-197.5,1377.5c-3.2-3.6-7.9-5.9-13.1-5.9h-81.3c0.9,1.2,1.6,2.5,2.2,3.9c3.1,7.1,2.7,16,2.7,16v0.5h28.9
			c0.3,0,0.5,0.2,0.5,0.5v4.5c0,0.3-0.2,0.5-0.5,0.5h-28.9v7.2h47c4.6,0,7.4,3.4,9.2,7.7h31.1v233.2h-157v-14.4h-2.8h-4.4v38.8
			c0,6.1,3.1,11.4,7.7,14.6c2.8,1.9,6.2,3,9.8,3h135.6c9.7,0,17.6-7.9,17.6-17.6v-281C-193,1384.7-194.7,1380.6-197.5,1377.5z
			 M-278.4,1678.4c-6.6,0-11.9-5.3-11.9-11.9c0-6.6,5.3-11.9,11.9-11.9c6.6,0,11.9,5.3,11.9,11.9
			C-266.5,1673.1-271.8,1678.4-278.4,1678.4z"/>
		<path class="st3" d="M-250.8,1412.5L-250.8,1412.5c0.9-1.2,1.8-2.2,2.7-3c3.9-3.6,8.2-4.7,8.2-4.7S-246.4,1406.5-250.8,1412.5z"/>
		<path class="st3" d="M-360.7,1603.8l0.2,0.1l0.2-0.1l1.1-0.9l2.8-2.2l16-12.9l20,16v-26.4v-3.5V1551v-26.4v-26.4v-26.4v-26.4V1419
			v-6.5v-19.9c0-0.7,0-1.4,0.1-2c0-0.2,0-0.4,0-0.6c0-0.4,0.1-0.9,0.1-1.3c0-0.2,0.1-0.5,0.1-0.7c0-0.4,0.1-0.8,0.1-1.1
			c0-0.2,0.1-0.5,0.1-0.7c0.1-0.4,0.1-0.7,0.2-1c0-0.2,0.1-0.4,0.1-0.7c0.1-0.3,0.2-0.7,0.2-1c0.1-0.2,0.1-0.4,0.2-0.6
			c0.1-0.3,0.2-0.7,0.3-1c0.1-0.2,0.1-0.3,0.2-0.5c0.2-0.5,0.3-0.9,0.5-1.4c0,0,0,0,0,0c0.2-0.4,0.4-0.9,0.6-1.3
			c0.1-0.1,0.1-0.3,0.2-0.4c0.1-0.3,0.3-0.6,0.4-0.8c0.1-0.2,0.2-0.3,0.3-0.4c0.1-0.2,0.3-0.5,0.4-0.7c0.1-0.1,0.2-0.3,0.3-0.4
			c0.1-0.1,0.2-0.2,0.2-0.3c0.1-0.1,0.1-0.2,0.2-0.3c0.1-0.1,0.2-0.3,0.3-0.4c0.2-0.2,0.3-0.4,0.5-0.6c0.1-0.1,0.2-0.2,0.3-0.4
			c0.2-0.2,0.4-0.4,0.5-0.6c0.1-0.1,0.2-0.2,0.3-0.3c0.3-0.3,0.5-0.5,0.8-0.8c0,0,0,0,0,0c0.2-0.2,0.4-0.4,0.6-0.6
			c0.1-0.1,0.2-0.2,0.3-0.2c0.1-0.1,0.2-0.2,0.3-0.3c0.2-0.2,0.4-0.3,0.6-0.5c0.1-0.1,0.2-0.2,0.4-0.3c0.2-0.1,0.4-0.3,0.6-0.4
			c0.1-0.1,0.3-0.2,0.4-0.2c0.2-0.1,0.4-0.2,0.5-0.3c0.1-0.1,0.3-0.2,0.4-0.2c0.2-0.1,0.4-0.2,0.5-0.3c0.1-0.1,0.2-0.1,0.4-0.2
			c0.1,0,0.1-0.1,0.2-0.1c0.1,0,0.1,0,0.2-0.1c0.5-0.2,1-0.4,1.4-0.6c0,0,0.1,0,0.1,0c0.4-0.2,0.9-0.3,1.3-0.5c0,0,0,0,0.1,0
			c0,0,0,0,0,0c0.1,0,0.2,0,0.2-0.1c0.1,0,0.3-0.1,0.4-0.1c0.1,0,0.2,0,0.2-0.1c0.1,0,0.2-0.1,0.3-0.1c0.1,0,0.2,0,0.2-0.1
			c0.1,0,0.2,0,0.3-0.1c0.1,0,0.1,0,0.2,0c0,0,0.1,0,0.1,0c0.1,0,0.1,0,0.1,0c0.1,0,0.1,0,0.1,0c0.1,0,0.1,0,0.2,0c0,0,0.1,0,0.1,0
			c0.1,0,0.1,0,0.1,0c0,0,0,0,0,0c0,0,0.1,0,0.1,0h-19.6H-341h-19.6h-19.6h-19.6h-19.6h-19.6h-19.6c0,0-0.3,0-0.9,0.1
			s-1.5,0.2-2.5,0.4c-1,0.3-2.2,0.6-3.5,1.2c-1.3,0.6-2.7,1.3-4.1,2.3c-1.4,1-2.8,2.3-4.1,3.8c-1.3,1.6-2.5,3.4-3.5,5.7
			c-1,2.3-1.9,4.9-2.5,8s-1,6.6-1,10.6v25.7v25.7v25.7v25.7v25.7v25.7v25.7v25.7l12.3-10c1.5-12.9,14.3-24.5,27.8-24.5h0.1
			c2.4,0,7.8,1.2,12.7,4c1.3,0.7,2.5,1.6,3.6,2.5c2.3,2.2,3.7,3.8,3.7,6.5c0,4.2-5.1,8.1-7.6,8.1c-2,0-8.4-8.8-18.3-9.7
			c-0.6-0.1-1.2-0.1-1.8-0.1c-6.2,0-9.7,3.2-9.7,8.7c0,0.2,0,0.4,0,0.6c0.5,4.5,6,9.1,11.4,13v-3.9l5.1,4.1l0.5,0.4l0.5-0.4
			l19.5-15.7l19.6,15.7l0.3,0.3l0.3-0.3l19.6-15.9l16.8,13.4L-360.7,1603.8z M-363.8,1423.5c0-0.3,0.2-0.5,0.5-0.5h3.9h2.8h15
			c0.3,0,0.5,0.2,0.5,0.5v4.5c0,0.3-0.2,0.5-0.5,0.5h-15h-2.8h-3.9c-0.3,0-0.5-0.2-0.5-0.5V1423.5z M-363.8,1436.8
			c0-0.3,0.2-0.5,0.5-0.5h3.9h2.8h15c0.3,0,0.5,0.2,0.5,0.5v4.5c0,0.3-0.2,0.5-0.5,0.5h-15h-2.8h-3.9c-0.3,0-0.5-0.2-0.5-0.5V1436.8
			z M-363.8,1449c0-0.3,0.2-0.5,0.5-0.5h3.9h2.8h15c0.3,0,0.5,0.2,0.5,0.5v4.5c0,0.3-0.2,0.5-0.5,0.5h-15h-2.8h-3.9
			c-0.3,0-0.5-0.2-0.5-0.5V1449z M-363.8,1474.8c0-0.3,0.2-0.5,0.5-0.5h3.9h2.8h15c0.3,0,0.5,0.2,0.5,0.5v4.5c0,0.3-0.2,0.5-0.5,0.5
			h-15h-2.8h-3.9c-0.3,0-0.5-0.2-0.5-0.5V1474.8z M-363.8,1486c0-0.3,0.2-0.5,0.5-0.5h3.9h2.8h15c0.3,0,0.5,0.2,0.5,0.5v4.5
			c0,0.3-0.2,0.5-0.5,0.5h-15h-2.8h-3.9c-0.3,0-0.5-0.2-0.5-0.5V1486z M-462.7,1423.5c0-0.3,0.2-0.5,0.5-0.5h58.1
			c0.3,0,0.5,0.2,0.5,0.5v4.5c0,0.3-0.2,0.5-0.5,0.5h-58.1c-0.3,0-0.5-0.2-0.5-0.5V1423.5z M-462.7,1436.8c0-0.3,0.2-0.5,0.5-0.5h36
			c0.3,0,0.5,0.2,0.5,0.5v4.5c0,0.3-0.2,0.5-0.5,0.5h-36c-0.3,0-0.5-0.2-0.5-0.5V1436.8z M-462.7,1449c0-0.3,0.2-0.5,0.5-0.5h42.1
			c0.3,0,0.5,0.2,0.5,0.5v4.5c0,0.3-0.2,0.5-0.5,0.5h-42.1c-0.3,0-0.5-0.2-0.5-0.5V1449z M-462.7,1474.8c0-0.3,0.2-0.5,0.5-0.5h45.4
			c0.3,0,0.5,0.2,0.5,0.5v4.5c0,0.3-0.2,0.5-0.5,0.5h-45.4c-0.3,0-0.5-0.2-0.5-0.5V1474.8z M-462.7,1486c0-0.3,0.2-0.5,0.5-0.5h51.5
			c0.3,0,0.5,0.2,0.5,0.5v4.5c0,0.3-0.2,0.5-0.5,0.5h-51.5c-0.3,0-0.5-0.2-0.5-0.5V1486z M-462.7,1524.2v-18.2h49.2v18.2H-462.7z"/>
	</g>
	<g>
		<path class="st1" d="M-197.5,1377.5c2.8,3.1,4.5,7.2,4.5,11.7v281c0,9.7-7.9,17.6-17.6,17.6h-135.6c-3.6,0-7-1.1-9.8-3
			c2.3,3,5.5,5.3,9.3,6.3c1.4,0.4,2.8,0.6,4.3,0.6h137.1c9.3,0,16.9-7.5,16.9-16.9v-262.3v-20.2
			C-188.5,1385.9-192.2,1380.3-197.5,1377.5z"/>
		<circle class="st1" cx="-278.4" cy="1666.5" r="11.9"/>
		<path class="st1" d="M-257.5,1397.1v-4.5c0-0.3-0.2-0.5-0.5-0.5h-28.9v5.5h28.9C-257.7,1397.6-257.5,1397.3-257.5,1397.1z"/>
		<rect x="-462.7" y="1505.9" class="st1" width="49.2" height="18.2"/>
		<path class="st1" d="M-410.7,1485.5h-51.5c-0.3,0-0.5,0.2-0.5,0.5v4.5c0,0.3,0.2,0.5,0.5,0.5h51.5c0.3,0,0.5-0.2,0.5-0.5v-4.5
			C-410.2,1485.7-410.4,1485.5-410.7,1485.5z"/>
		<path class="st1" d="M-404.1,1423h-58.1c-0.3,0-0.5,0.2-0.5,0.5v4.5c0,0.3,0.2,0.5,0.5,0.5h58.1c0.3,0,0.5-0.2,0.5-0.5v-4.5
			C-403.5,1423.3-403.8,1423-404.1,1423z"/>
		<path class="st1" d="M-462.2,1479.8h45.4c0.3,0,0.5-0.2,0.5-0.5v-4.5c0-0.3-0.2-0.5-0.5-0.5h-45.4c-0.3,0-0.5,0.2-0.5,0.5v4.5
			C-462.7,1479.6-462.5,1479.8-462.2,1479.8z"/>
		<path class="st1" d="M-462.2,1454h42.1c0.3,0,0.5-0.2,0.5-0.5v-4.5c0-0.3-0.2-0.5-0.5-0.5h-42.1c-0.3,0-0.5,0.2-0.5,0.5v4.5
			C-462.7,1453.7-462.5,1454-462.2,1454z"/>
		<path class="st1" d="M-462.2,1441.8h36c0.3,0,0.5-0.2,0.5-0.5v-4.5c0-0.3-0.2-0.5-0.5-0.5h-36c-0.3,0-0.5,0.2-0.5,0.5v4.5
			C-462.7,1441.6-462.5,1441.8-462.2,1441.8z"/>
		<path class="st1" d="M-363.2,1428.5h3.9h2.8h15c0.3,0,0.5-0.2,0.5-0.5v-4.5c0-0.3-0.2-0.5-0.5-0.5h-15h-2.8h-3.9
			c-0.3,0-0.5,0.2-0.5,0.5v4.5C-363.8,1428.3-363.5,1428.5-363.2,1428.5z"/>
		<path class="st1" d="M-363.2,1441.8h3.9h2.8h15c0.3,0,0.5-0.2,0.5-0.5v-4.5c0-0.3-0.2-0.5-0.5-0.5h-15h-2.8h-3.9
			c-0.3,0-0.5,0.2-0.5,0.5v4.5C-363.8,1441.6-363.5,1441.8-363.2,1441.8z"/>
		<path class="st1" d="M-363.2,1454h3.9h2.8h15c0.3,0,0.5-0.2,0.5-0.5v-4.5c0-0.3-0.2-0.5-0.5-0.5h-15h-2.8h-3.9
			c-0.3,0-0.5,0.2-0.5,0.5v4.5C-363.8,1453.7-363.5,1454-363.2,1454z"/>
		<path class="st1" d="M-363.2,1479.8h3.9h2.8h15c0.3,0,0.5-0.2,0.5-0.5v-4.5c0-0.3-0.2-0.5-0.5-0.5h-15h-2.8h-3.9
			c-0.3,0-0.5,0.2-0.5,0.5v4.5C-363.8,1479.6-363.5,1479.8-363.2,1479.8z"/>
		<path class="st1" d="M-341.1,1490.5v-4.5c0-0.3-0.2-0.5-0.5-0.5h-15h-2.8h-3.9c-0.3,0-0.5,0.2-0.5,0.5v4.5c0,0.3,0.2,0.5,0.5,0.5
			h3.9h2.8h15C-341.3,1491-341.1,1490.8-341.1,1490.5z"/>
	</g>
	<g>
		<path class="st4" d="M-442.3,1662.4c-5.6,0-9.9,4.6-9.9,10.2c0,6.2,4.3,10.3,9.9,10.3h0.2c5.2,0,9.6-4.1,9.6-10.3
			C-432.5,1667-436.8,1662.4-442.3,1662.4z"/>
		<path class="st4" d="M-447.9,1581.2c0.6,0,1.2,0,1.8,0.1c9.9,1,16.3,9.7,18.3,9.7c2.5,0,7.6-3.9,7.6-8.1c0-2.7-1.4-4.3-3.7-6.5
			c-1.1-1-2.4-1.8-3.6-2.5c-4.9-2.8-10.3-4-12.7-4h-0.1c-13.5,0-26.3,11.5-27.8,24.5c-0.1,0.9-0.2,1.7-0.2,2.6
			c0,6,2.3,10.4,8.4,15.3c5.5,4.2,18.8,11.5,18.8,19.3c0,5.2-2.5,8.6-7.3,12.9l3,4c6-2.2,16.3-9.3,18.8-17.9
			c0.4-1.3,0.6-2.6,0.6-3.9c0-6-3.7-11.2-14.6-19.2c-1.4-1-2.9-2-4.5-3.1c-0.3-0.2-0.5-0.4-0.8-0.6c-0.1-0.1-0.3-0.2-0.4-0.3
			c-5.5-3.9-11-8.5-11.4-13c0-0.2,0-0.4,0-0.6C-457.6,1584.4-454,1581.2-447.9,1581.2z"/>
	</g>
	<path class="st5" d="M-230.7,1412.5c3,7.1,3,16.6,3,16.6v80.7c0,25.2,6,32.8,11.1,34.8h-13.8h-24.3v54.7
		c0,31.5-11.6,32.1-11.6,32.1l-8-1.5c2.7,1.2,4.7,1.5,4.7,1.5h-20.5h-66.3v14.4h157v-233.2H-230.7z"/>
</g>
</svg>
