<?xml version="1.0" encoding="utf-8"?>
<!-- Generator: Adobe Illustrator 19.0.0, SVG Export Plug-In . SVG Version: 6.00 Build 0)  -->
<svg version="1.1" id="Capa_1" xmlns="http://www.w3.org/2000/svg" xmlns:xlink="http://www.w3.org/1999/xlink" x="0px" y="0px"
	 viewBox="-548.9 1314.7 428.9 428.9" style="enable-background:new -548.9 1314.7 428.9 428.9;" xml:space="preserve">
<style type="text/css">
	.st0{fill:#BABABA;}
	.st1{fill:#F2F2F2;}
	.st2{fill:#80968B;}
	.st3{fill:#65756D;}
	.st4{fill:#315A68;}
	.st5{fill:#AD5C44;}
	.st6{fill:url(#XMLID_2_);}
	.st7{fill:url(#XMLID_3_);}
	.st8{fill:url(#XMLID_4_);}
	.st9{fill:url(#XMLID_5_);}
	.st10{fill:url(#XMLID_6_);}
	.st11{fill:url(#XMLID_7_);}
	.st12{fill:url(#XMLID_8_);}
</style>
<g id="XMLID_12_">
	<path id="XMLID_468_" class="st0" d="M-219,1409c0-16-13-29-29-29h-167c-16,0-29,13-29,29v248c0,16,13,29,29,29h167
		c16,0,29-13,29-29V1409z M-228,1408.3v247.6v0c0,4-1.2,7.7-3.3,10.7c-0.7,1-1.5,2-2.3,2.8c-1.3,1.3-2.8,2.9-4.4,3.8
		c-2.7,1.5-5.8,2.8-9.1,2.8h-167.6c-3.3,0-6.4-1.3-9.1-2.8c-1.6-0.9-3.1-2.2-4.4-3.5c-0.9-0.9-1.7-1.9-2.3-3
		c-2.1-3.1-3.3-6.8-3.3-10.8v0v-247.6v0c0-6,2.7-11.3,7-14.8c0.5-0.4,1-0.8,1.5-1.1c1-0.7,2.1-0.8,3.3-1.3c2.3-1,4.8-1.1,7.5-1.1
		h167.6c2.6,0,5.2,0.1,7.5,1.1c1.1,0.5,2.2,0.9,3.3,1.5c0.5,0.3,1,0.6,1.5,1C-230.7,1397.1-228,1402.4-228,1408.3L-228,1408.3z"/>
	<path id="XMLID_404_" class="st1" d="M-235,1393.5c-0.5-0.4-1-0.8-1.5-1.1c-1-0.7-2.1-0.8-3.3-1.3c-2.3-1-4.8-1.1-7.5-1.1h-167.6
		c-2.6,0-5.2,0.1-7.5,1.1c-1.1,0.5-2.2,0.9-3.3,1.5c-0.5,0.3-1,0.6-1.5,1c-4.3,3.5-7,8.7-7,14.7v247.6c0,4,1.2,7.7,3.3,10.7
		c0.7,1,1.5,2,2.3,2.8c1.3,1.3,2.8,2.9,4.4,3.8c2.7,1.5,5.8,2.8,9.1,2.8h167.6c3.3,0,6.4-1.3,9.1-2.8c1.6-0.9,3.1-2.2,4.4-3.5
		c0.9-0.9,1.7-1.9,2.3-3c2.1-3.1,3.3-6.9,3.3-10.8v-247.6C-228,1402.3-230.7,1397-235,1393.5z M-338,1641.1
		c0,7.1-5.8,12.9-12.9,12.9h-57.2c-7.1,0-12.9-5.8-12.9-12.9v-45.2c0-7.1,5.8-12.9,12.9-12.9h57.2c7.1,0,12.9,5.8,12.9,12.9V1641.1z
		 M-338,1561.1c0,7.1-5.8,12.9-12.9,12.9h-57.2c-7.1,0-12.9-5.8-12.9-12.9v-45.2c0-7.1,5.8-12.9,12.9-12.9h57.2
		c7.1,0,12.9,5.8,12.9,12.9V1561.1z M-241,1641.1c0,7.1-5.8,12.9-12.9,12.9h-57.2c-7.1,0-12.9-5.8-12.9-12.9v-45.2
		c0-7.1,5.8-12.9,12.9-12.9h57.2c7.1,0,12.9,5.8,12.9,12.9V1641.1z M-241,1561.1c0,7.1-5.8,12.9-12.9,12.9h-57.2
		c-7.1,0-12.9-5.8-12.9-12.9v-45.2c0-7.1,5.8-12.9,12.9-12.9h57.2c7.1,0,12.9,5.8,12.9,12.9V1561.1z M-238,1473.9
		c0,7.8-6.3,14.1-14.1,14.1h-157.8c-7.8,0-14.1-6.3-14.1-14.1v-57.8c0-7.8,6.3-14.1,14.1-14.1h157.8c7.8,0,14.1,6.3,14.1,14.1
		V1473.9z"/>
	<path id="XMLID_403_" class="st1" d="M-428.4,1669.5c-0.9-0.9-1.7-1.8-2.3-2.8C-430,1667.7-429.2,1668.6-428.4,1669.5z"/>
	<path id="XMLID_402_" class="st1" d="M-434,1655.9c0,4,1.2,7.7,3.3,10.7C-432.8,1663.6-434,1659.9-434,1655.9L-434,1655.9z"/>
	<path id="XMLID_401_" class="st1" d="M-425.5,1392.4c1-0.7,2.1-1.3,3.3-1.8C-423.4,1391.1-424.5,1391.7-425.5,1392.4z"/>
	<path id="XMLID_400_" class="st1" d="M-424,1672.8c-1.6-0.9-3.1-2-4.4-3.3C-427.1,1670.8-425.6,1671.9-424,1672.8z"/>
	<path id="XMLID_399_" class="st1" d="M-427,1393.5c-4.3,3.5-7,8.8-7,14.8v0C-434,1402.3-431.3,1397-427,1393.5z"/>
	<path id="XMLID_398_" class="st1" d="M-239.7,1390.6c1.1,0.5,2.2,1.1,3.3,1.8C-237.5,1391.7-238.6,1391.1-239.7,1390.6z"/>
	<path id="XMLID_397_" class="st1" d="M-233.6,1669.5c-1.3,1.3-2.8,2.4-4.4,3.3C-236.4,1671.9-234.9,1670.8-233.6,1669.5z"/>
	<path id="XMLID_396_" class="st1" d="M-228,1655.9L-228,1655.9c0,4-1.2,7.7-3.3,10.7C-229.2,1663.6-228,1659.9-228,1655.9z"/>
	<path id="XMLID_395_" class="st1" d="M-235,1393.5c4.3,3.5,7,8.8,7,14.8v0C-228,1402.3-230.7,1397-235,1393.5z"/>
	<path id="XMLID_394_" class="st1" d="M-231.3,1666.6c-0.7,1-1.5,2-2.3,2.8C-232.8,1668.6-232,1667.7-231.3,1666.6z"/>
	<path id="XMLID_144_" class="st2" d="M-238,1416.1c0-7.8-6.3-14.1-14.1-14.1h-157.8c-7.8,0-14.1,6.3-14.1,14.1v57.8
		c0,7.8,6.3,14.1,14.1,14.1h157.8c7.8,0,14.1-6.3,14.1-14.1V1416.1z M-287.2,1422h19l-1.9,5h-15.2l-5.1-1.9
		C-289.9,1423.4-288.9,1422-287.2,1422z M-268.8,1442l2.5,2.5l-2.5,2.5h-16.5l-2.5-2.5l2.5-2.5H-268.8z M-323,1422h19l-1.9,5h-15.2
		l-5.1-1.9C-325.8,1423.4-324.7,1422-323,1422z M-326,1445.9l1.2-1.3l3.8,3.8v12.1l-5,1.9V1445.9z M-395.1,1422h19l-1.9,5h-15.2
		l-5.1-1.9C-397.8,1423.4-396.8,1422-395.1,1422z M-398,1425.5l5,1.9v12.1l-3.8,3.8l-1.2-1.3V1425.5z M-398,1445.9l1.2-1.3l3.8,3.8
		v12.1l-5,1.9V1445.9z M-395.1,1468c-1.7-1-2.8-1.4-3.2-3.1l5.1-1.9h15.3l1.9,5H-395.1z M-372,1463.7c0,1.7-1.4,2.8-3.1,3.2
		l-1.9-5.1v-13.4l3.8-3.8l1.2,1.3V1463.7z M-372,1442l-1.2,1.3l-3.8-3.8v-13.4l1.9-5.1c1.7,0.4,3.1,1.5,3.1,3.2V1442z M-335,1463.7
		c-1,1.7-1.9,2.8-3.6,3.2l-2.4-5.1v-13.4l4.3-3.8l1.7,1.3V1463.7z M-335,1442l-1.7,1.3l-4.3-3.8v-13.4l2.4-5.1
		c1.7,0.4,2.6,1.5,3.6,3.2V1442z M-323.1,1468c-1.7-1-2.8-1.4-3.2-3.1l5.1-1.9h17.2l1.9,5H-323.1z M-304.7,1447h-16.5l-2.5-2.5
		l2.5-2.5h16.5l2.5,2.5L-304.7,1447z M-300,1442l-1.2,1.3l-3.8-3.8v-13.4l1.9-5.1c1.7,0.4,3.1,1.5,3.1,3.2V1442z M-287.2,1468
		c-1.7-1-2.8-1.4-3.2-3.1l5.1-1.9h15.3l1.9,5H-287.2z M-264,1463.7c0,1.7-1.4,2.8-3.1,3.2l-1.9-5.1v-13.4l3.8-3.8l1.2,1.3V1463.7z
		 M-264,1442l-1.2,1.3l-3.8-3.8v-13.4l1.9-5.1c1.7,0.4,3.1,1.5,3.1,3.2V1442z"/>
	<polygon id="XMLID_143_" class="st3" points="-393,1439.5 -393,1427.4 -398,1425.5 -398,1442 -396.8,1443.3 	"/>
	<polygon id="XMLID_142_" class="st3" points="-393,1448.4 -396.8,1444.6 -398,1445.9 -398,1462.4 -393,1460.5 	"/>
	<path id="XMLID_141_" class="st3" d="M-378,1427l1.9-5h-19c-1.7,0-2.8,1.4-3.2,3.1l5.1,1.9H-378z"/>
	<path id="XMLID_140_" class="st3" d="M-375.1,1421l-1.9,5.1v13.4l3.8,3.8l1.2-1.3v-17.8C-372,1422.5-373.4,1421.5-375.1,1421z"/>
	<path id="XMLID_139_" class="st3" d="M-393.2,1463l-5.1,1.9c0.4,1.7,1.5,2.1,3.2,3.1h19.1l-1.9-5H-393.2z"/>
	<path id="XMLID_138_" class="st3" d="M-377,1448.4v13.4l1.9,5.1c1.7-0.4,3.1-1.5,3.1-3.2v-17.8l-1.2-1.3L-377,1448.4z"/>
	<path id="XMLID_137_" class="st3" d="M-341,1448.4v13.4l2.4,5.1c1.7-0.4,2.6-1.5,3.6-3.2v-17.8l-1.7-1.3L-341,1448.4z"/>
	<path id="XMLID_136_" class="st3" d="M-338.6,1421l-2.4,5.1v13.4l4.3,3.8l1.7-1.3v-17.8C-336,1422.5-336.9,1421.5-338.6,1421z"/>
	<polygon id="XMLID_135_" class="st3" points="-321.2,1442 -323.7,1444.5 -321.2,1447 -304.7,1447 -302.1,1444.5 -304.7,1442 	"/>
	<path id="XMLID_134_" class="st3" d="M-303.1,1421l-1.9,5.1v13.4l3.8,3.8l1.2-1.3v-17.8C-300,1422.5-301.4,1421.5-303.1,1421z"/>
	<polygon id="XMLID_133_" class="st3" points="-321,1448.4 -324.8,1444.6 -326,1445.9 -326,1462.4 -321,1460.5 	"/>
	<path id="XMLID_132_" class="st3" d="M-321.2,1463l-5.1,1.9c0.4,1.7,1.5,2.1,3.2,3.1h21l-1.9-5H-321.2z"/>
	<path id="XMLID_131_" class="st3" d="M-305.9,1427l1.9-5h-19c-1.7,0-2.8,1.4-3.2,3.1l5.1,1.9H-305.9z"/>
	<polygon id="XMLID_130_" class="st3" points="-287.9,1444.5 -285.3,1447 -268.8,1447 -266.2,1444.5 -268.8,1442 -285.3,1442 	"/>
	<path id="XMLID_129_" class="st3" d="M-267.1,1421l-1.9,5.1v13.4l3.8,3.8l1.2-1.3v-17.8C-264,1422.5-265.4,1421.5-267.1,1421z"/>
	<path id="XMLID_128_" class="st3" d="M-285.3,1463l-5.1,1.9c0.4,1.7,1.5,2.1,3.2,3.1h19.1l-1.9-5H-285.3z"/>
	<path id="XMLID_127_" class="st3" d="M-269,1448.4v13.4l1.9,5.1c1.7-0.4,3.1-1.5,3.1-3.2v-17.8l-1.2-1.3L-269,1448.4z"/>
	<path id="XMLID_123_" class="st3" d="M-270,1427l1.9-5h-19c-1.7,0-2.8,1.4-3.2,3.1l5.1,1.9H-270z"/>
	<path id="XMLID_120_" class="st4" d="M-338,1515.9c0-7.1-5.8-12.9-12.9-12.9h-57.2c-7.1,0-12.9,5.8-12.9,12.9v45.2
		c0,7.1,5.8,12.9,12.9,12.9h57.2c7.1,0,12.9-5.8,12.9-12.9V1515.9z M-364,1542h-12v11h-7v-11h-12v-8h12v-11h7v11h12V1542z"/>
	<path id="XMLID_114_" class="st4" d="M-241,1515.9c0-7.1-5.8-12.9-12.9-12.9h-57.2c-7.1,0-12.9,5.8-12.9,12.9v45.2
		c0,7.1,5.8,12.9,12.9,12.9h57.2c7.1,0,12.9-5.8,12.9-12.9V1515.9z M-287,1522h9v9h-9V1522z M-278,1554h-9v-8h9V1554z M-267,1542
		h-31v-8h31V1542z"/>
	<path id="XMLID_111_" class="st4" d="M-338,1595.9c0-7.1-5.8-12.9-12.9-12.9h-57.2c-7.1,0-12.9,5.8-12.9,12.9v45.2
		c0,7.1,5.8,12.9,12.9,12.9h57.2c7.1,0,12.9-5.8,12.9-12.9V1595.9z M-370.6,1632.2l-9-9l-8.9,8.9l-5.4-5.4l8.9-8.9l-9-9l5.5-5.5l9,9
		l8.9-8.9l5.4,5.4l-8.9,8.9l9,9L-370.6,1632.2z"/>
	<path id="XMLID_100_" class="st5" d="M-241,1595.9c0-7.1-5.8-12.9-12.9-12.9h-57.2c-7.1,0-12.9,5.8-12.9,12.9v45.2
		c0,7.1,5.8,12.9,12.9,12.9h57.2c7.1,0,12.9-5.8,12.9-12.9V1595.9z M-267,1629h-31v-8h31V1629z M-267,1616h-31v-8h31V1616z"/>
	<rect id="XMLID_99_" x="-287" y="1546" class="st4" width="9" height="8"/>
	<linearGradient id="XMLID_2_" gradientUnits="userSpaceOnUse" x1="-275.553" y1="1562.3875" x2="-303.3789" y2="1512.77">
		<stop  offset="0" style="stop-color:#F5F5F5"/>
		<stop  offset="1" style="stop-color:#C2C2C2"/>
	</linearGradient>
	<rect id="XMLID_98_" x="-287" y="1546" class="st6" width="9" height="8"/>
	<rect id="XMLID_97_" x="-298" y="1534" class="st4" width="31" height="8"/>
	<linearGradient id="XMLID_3_" gradientUnits="userSpaceOnUse" x1="-270.2797" y1="1559.7905" x2="-298.6207" y2="1509.2545">
		<stop  offset="0" style="stop-color:#F5F5F5"/>
		<stop  offset="1" style="stop-color:#C2C2C2"/>
	</linearGradient>
	<rect id="XMLID_91_" x="-298" y="1534" class="st7" width="31" height="8"/>
	<rect id="XMLID_90_" x="-287" y="1522" class="st4" width="9" height="9"/>
	<linearGradient id="XMLID_4_" gradientUnits="userSpaceOnUse" x1="-264.1436" y1="1559.2321" x2="-294.1086" y2="1505.8003">
		<stop  offset="0" style="stop-color:#F5F5F5"/>
		<stop  offset="1" style="stop-color:#C2C2C2"/>
	</linearGradient>
	<rect id="XMLID_71_" x="-287" y="1522" class="st8" width="9" height="9"/>
	<polygon id="XMLID_64_" class="st4" points="-365.1,1608.7 -370.5,1603.3 -379.4,1612.3 -388.5,1603.3 -394,1608.8 -385,1617.8 
		-393.9,1626.7 -388.5,1632.1 -379.6,1623.2 -370.6,1632.2 -365,1626.7 -374.1,1617.7 	"/>
	<linearGradient id="XMLID_5_" gradientUnits="userSpaceOnUse" x1="-370.698" y1="1634.8608" x2="-396.8119" y2="1584.1998">
		<stop  offset="0" style="stop-color:#F5F5F5"/>
		<stop  offset="1" style="stop-color:#C2C2C2"/>
	</linearGradient>
	<polygon id="XMLID_59_" class="st9" points="-365.1,1608.7 -370.5,1603.3 -379.4,1612.3 -388.5,1603.3 -394,1608.8 -385,1617.8 
		-393.9,1626.7 -388.5,1632.1 -379.6,1623.2 -370.6,1632.2 -365,1626.7 -374.1,1617.7 	"/>
	<rect id="XMLID_58_" x="-298" y="1608" class="st5" width="31" height="8"/>
	<linearGradient id="XMLID_6_" gradientUnits="userSpaceOnUse" x1="-270.8441" y1="1632.1682" x2="-294.7481" y2="1590.8071">
		<stop  offset="0" style="stop-color:#F5F5F5"/>
		<stop  offset="1" style="stop-color:#C2C2C2"/>
	</linearGradient>
	<rect id="XMLID_54_" x="-298" y="1608" class="st10" width="31" height="8"/>
	<rect id="XMLID_51_" x="-298" y="1621" class="st5" width="31" height="8"/>
	<linearGradient id="XMLID_7_" gradientUnits="userSpaceOnUse" x1="-276.7064" y1="1635.0245" x2="-300.5824" y2="1593.7122">
		<stop  offset="0" style="stop-color:#F5F5F5"/>
		<stop  offset="1" style="stop-color:#C2C2C2"/>
	</linearGradient>
	<rect id="XMLID_49_" x="-298" y="1621" class="st11" width="31" height="8"/>
	<polygon id="XMLID_40_" class="st4" points="-376,1523 -383,1523 -383,1534 -395,1534 -395,1542 -383,1542 -383,1553 -376,1553 
		-376,1542 -364,1542 -364,1534 -376,1534 	"/>
	<linearGradient id="XMLID_8_" gradientUnits="userSpaceOnUse" x1="-368.3541" y1="1555.1705" x2="-396.7242" y2="1511.4656">
		<stop  offset="0" style="stop-color:#F5F5F5"/>
		<stop  offset="1" style="stop-color:#C2C2C2"/>
	</linearGradient>
	<polygon id="XMLID_13_" class="st12" points="-376,1523 -383,1523 -383,1534 -395,1534 -395,1542 -383,1542 -383,1553 -376,1553 
		-376,1542 -364,1542 -364,1534 -376,1534 	"/>
</g>
</svg>
