<?xml version="1.0" encoding="utf-8"?>
<!-- Generator: Adobe Illustrator 19.0.0, SVG Export Plug-In . SVG Version: 6.00 Build 0)  -->
<svg version="1.1" id="Capa_1" xmlns="http://www.w3.org/2000/svg" xmlns:xlink="http://www.w3.org/1999/xlink" x="0px" y="0px"
	 viewBox="-65 266.1 428.9 428.9" style="enable-background:new -65 266.1 428.9 428.9;" xml:space="preserve">
<style type="text/css">
	.st0{fill:#EDEDED;}
	.st1{fill:#315A68;}
	.st2{fill:#FFFFFF;}
	.st3{fill:#80968B;}
	.st4{fill:#F5F5F5;}
	.st5{fill:#C6C6C5;}
	.st6{fill:#C6E5D5;}
	.st7{fill:#DEFFED;}
</style>
<path class="st0" d="M216.4,342.5h-11.6v41h15.4v218.6H78.6V383.5h15.4v-41H82.3c-10.6,0-19.1,8.6-19.1,19.1v262.3
	c0,10.6,8.6,19.1,19.1,19.1h134.2c10.6,0,19.1-8.6,19.1-19.1V361.6C235.6,351.1,227.1,342.5,216.4,342.5z M149.3,634.9
	c-6.8,0-12.3-5.5-12.3-12.3s5.5-12.3,12.3-12.3s12.3,5.5,12.3,12.3S156.1,634.9,149.3,634.9z"/>
<polygon class="st1" points="210.9,419.2 210.9,431.4 87.8,431.4 87.8,419.2 93.9,419.2 93.9,383.6 78.6,383.6 78.6,602.2 
	220.3,602.2 220.3,383.6 204.8,383.6 204.8,419.2 "/>
<path class="st1" d="M177.1,460.1c1.2-0.2,2.8-0.3,4.5-0.3c2.8,0,4.7,0.5,6.1,1.7c1.6,1.3,2.6,3.3,2.6,6.3c0,3.2-1,5.4-2.6,6.8
	c-1.6,1.3-3.9,2-6.8,2c-1.7,0-2.9-0.1-3.8-0.2L177.1,460.1L177.1,460.1z"/>
<path class="st1" d="M164.2,473.3c0.4,0.1,1,0.2,1.6,0.2c1.4,0,2.3-0.6,2.3-3v-10.7h3.6v10.6c0,4.7-2.2,6-5.5,6
	c-0.8,0-1.8-0.1-2.4-0.3L164.2,473.3z"/>
<path class="st1" d="M153.3,469.2h-1.2v-2.6h1.1c1.2,0,2.8-0.5,2.8-1.9c0-1-0.8-1.7-2.2-1.7c-1.1,0-2.3,0.5-2.9,0.9l-0.7-2.6
	c0.9-0.6,2.6-1.1,4.4-1.1c3.2,0,4.9,1.8,4.9,3.9c0,1.6-0.9,3-2.7,3.6l0,0c1.8,0.4,3.2,1.8,3.2,3.9c0,2.7-2.3,4.8-6.1,4.8
	c-1.8,0-3.4-0.5-4.2-1l0.7-2.7c0.7,0.3,2,0.9,3.3,0.9c1.8,0,2.8-1,2.8-2.2C156.4,469.9,154.9,469.2,153.3,469.2z"/>
<path class="st1" d="M143.6,472.1c1.2,0,2.1,0.9,2.1,2.2c0,1.3-0.8,2.2-2.1,2.2c-1.2,0-2-0.9-2-2.2
	C141.6,473.1,142.4,472.1,143.6,472.1z"/>
<polygon class="st1" points="126.4,460.5 136.8,460.5 136.8,462.8 130.7,476.4 127,476.4 133,463.6 133,463.6 126.3,463.6 
	126.3,460.5 "/>
<polygon class="st1" points="116.1,460.5 119.1,460.5 119.1,476.3 115.6,476.3 115.6,463.7 115.6,463.7 112.7,465.1 112.1,462.4 "/>
<path class="st1" d="M186.6,467.8c0-3.4-1.7-5.3-4.5-5.3c-0.6,0-1.1,0-1.4,0.1v10.9c0.3,0,0.7,0,1.1,0
	C184.6,473.7,186.6,471.9,186.6,467.8z"/>
<g>
	<polygon class="st2" points="115.6,463.7 115.6,463.7 115.6,476.3 119.1,476.3 119.1,460.5 116.1,460.5 112.1,462.4 112.6,465.1 	
		"/>
	<polygon class="st2" points="136.8,460.5 126.4,460.5 126.4,463.4 133.1,463.4 133.1,463.5 127.1,476.3 130.8,476.3 136.8,462.7 	
		"/>
	<path class="st2" d="M143.6,476.6c1.3,0,2.1-0.9,2.1-2.2c0-1.3-0.9-2.2-2.1-2.2s-2.1,0.9-2.1,2.2
		C141.6,475.7,142.4,476.6,143.6,476.6z"/>
	<path class="st2" d="M153.7,473.7c-1.3,0-2.6-0.5-3.3-0.9l-0.7,2.7c0.9,0.5,2.4,1,4.2,1c3.8,0,6.1-2.1,6.1-4.8
		c0-2.1-1.4-3.5-3.2-3.9l0,0c1.8-0.7,2.7-2,2.7-3.6c0-2.1-1.7-3.9-4.9-3.9c-1.8,0-3.6,0.5-4.4,1.1l0.7,2.6c0.6-0.4,1.8-0.9,2.9-0.9
		c1.4,0,2.2,0.7,2.2,1.7c0,1.4-1.5,1.9-2.8,1.9h-1.1v2.6h1.2c1.6,0,3.1,0.7,3.1,2.4C156.4,472.8,155.6,473.7,153.7,473.7z"/>
	<path class="st2" d="M171.7,470.5v-10.6h-3.6v10.7c0,2.4-0.9,3-2.3,3c-0.6,0-1.2-0.1-1.6-0.2l-0.4,2.9c0.6,0.2,1.6,0.3,2.4,0.3
		C169.4,476.6,171.7,475.2,171.7,470.5z"/>
	<path class="st2" d="M187.6,474.5c1.5-1.3,2.6-3.5,2.6-6.8c0-3-1-5-2.6-6.3c-1.4-1.1-3.3-1.7-6.1-1.7c-1.7,0-3.3,0.1-4.5,0.3v16.2
		c0.8,0.1,2.1,0.2,3.8,0.2C183.7,476.5,186.1,475.9,187.6,474.5z M180.6,462.7c0.3-0.1,0.7-0.1,1.4-0.1c2.8,0,4.5,1.9,4.5,5.3
		c0,4.1-2,5.9-4.8,5.9c-0.4,0-0.8,0-1.1,0V462.7z"/>
</g>
<path class="st3" d="M149.3,610.3c-6.8,0-12.3,5.5-12.3,12.3s5.5,12.3,12.3,12.3s12.3-5.5,12.3-12.3S156.1,610.3,149.3,610.3z"/>
<polygon class="st3" points="204.8,419.2 204.8,425.3 93.9,425.3 93.9,419.2 87.8,419.2 87.8,431.4 210.9,431.4 210.9,419.2 "/>
<path class="st4" d="M198.6,324.3l-6.2-6.2l-6.2,6.2l-6.2-6.2l-6.2,6.2l-6.2-6.2l-6.2,6.2l-6.2-6.2l-6.2,6.2l-6.2-6.2l-6.2,6.2
	l-6.2-6.2l-6.2,6.2l-6.2-6.2l-6.2,6.2l-6.2-6.2l-6.2,6.2l-6.2-6.2v6.2v2.3v15.9v41v35.6v6.1h111.6v-6.1v-35.6v-41v-15.9v-2.3v-6.2
	L198.6,324.3z M109.3,383.6v-1.5h31.1v1.5v1.5h-31.1V383.6z M146.4,400.3h-37.2v-3h37.2V400.3z M152.6,369.8h-43.3v-3H134h18.6
	L152.6,369.8L152.6,369.8z M189.4,400.3h-18.9v-3h18.9V400.3z M189.4,383.6v1.5h-18.9v-1.5v-1.5h18.9V383.6z M189.4,369.8h-18.9v-3
	h18.9V369.8z"/>
<g>
	<rect x="170.6" y="366.8" class="st5" width="18.9" height="3"/>
	<polygon class="st5" points="170.6,383.6 170.6,385.1 189.4,385.1 189.4,383.6 189.4,382 170.6,382 	"/>
	<rect x="170.6" y="397.3" class="st5" width="18.9" height="3"/>
	<polygon class="st5" points="109.3,366.8 109.3,369.8 152.6,369.8 152.6,366.8 134.1,366.8 	"/>
	<polygon class="st5" points="140.3,383.6 140.3,382 109.3,382 109.3,383.6 109.3,385.1 140.3,385.1 	"/>
	<rect x="109.3" y="397.3" class="st5" width="37.2" height="3"/>
</g>
<rect x="98.5" y="499.5" class="st0" width="101.9" height="17"/>
<g>
	<path class="st3" d="M181,508v56.5c-5.7,0-10.4,4.7-10.4,10.4h-42.4c0-5.7-4.6-10.4-10.3-10.4V508h-8.4v75.3h80V508H181z"/>
	<path class="st6" d="M176.8,560.9c-4.7,1.4-8.4,5.1-9.8,9.8h-35.2c-1.4-4.6-5.1-8.3-9.7-9.8V508h-4.2v56.5
		c5.7,0,10.3,4.7,10.3,10.4h42.4c0-5.7,4.7-10.4,10.4-10.4V508h-4.2V560.9z"/>
	<path class="st7" d="M131.8,570.7H167c1.4-4.7,5.1-8.4,9.8-9.8V508h-8.1c0,10.6-8.6,19.3-19.3,19.3c-10.6,0-19.3-8.6-19.3-19.3
		h-8.1V561C126.7,562.4,130.4,566.1,131.8,570.7z"/>
	<path class="st3" d="M149.5,527.3c10.6,0,19.3-8.6,19.3-19.3h-38.5C130.2,518.7,138.8,527.3,149.5,527.3z"/>
</g>
<rect x="109.5" y="506.1" class="st1" width="80" height="1.9"/>
</svg>
