<?xml version="1.0" encoding="utf-8"?>
<!-- Generator: Adobe Illustrator 19.0.0, SVG Export Plug-In . SVG Version: 6.00 Build 0)  -->
<svg version="1.1" id="Capa_1" xmlns="http://www.w3.org/2000/svg" xmlns:xlink="http://www.w3.org/1999/xlink" x="0px" y="0px"
	 viewBox="-548.9 1314.7 428.9 428.9" style="enable-background:new -548.9 1314.7 428.9 428.9;" xml:space="preserve">
<style type="text/css">
	.st0{fill:none;}
	.st1{fill:#EDEDED;}
	.st2{fill:#315A68;}
	.st3{fill:#B3B3B3;}
	.st4{fill:#94C749;}
	.st5{fill:#A0CBFD;}
	.st6{fill:#FFFFFF;}
	.st7{fill:#C5C0BC;}
	.st8{fill:#AD5C44;}
</style>
<path class="st0" d="M-497.4,1595.3h0.2c-0.3,0-0.7,0-1,0C-498,1595.3-497.7,1595.3-497.4,1595.3z"/>
<path class="st0" d="M-500.4,1595.1c-0.2,0-0.4-0.1-0.7-0.1C-500.8,1595-500.6,1595.1-500.4,1595.1z"/>
<path class="st0" d="M-498.8,1595.2c-0.3,0-0.7,0-1-0.1C-499.5,1595.2-499.1,1595.2-498.8,1595.2z"/>
<path class="st1" d="M-377.5,1491h2.3h26.9c0.4-2.4,1.1-4.8,2-7h-31.1l-3.3,7H-377.5z"/>
<path class="st1" d="M-290.8,1491h2.4h9.9h0.3h18.3h4.3l-3.2-7h-34.7c0.9,2.2,1.5,4.6,1.9,7H-290.8z"/>
<path class="st1" d="M-501,1595c0.2,0,0.4,0.1,0.7,0.1c0.2,0,0.4,0,0.6,0.1c0.3,0,0.7,0.1,1,0.1c0.2,0,0.4,0,0.6,0c0.3,0,0.7,0,1,0
	h162.8h163c8.7,0,13.4-4.3,14.6-8.7c0.5-2.9-0.2-6.3-2.4-9.8l-53.3-84.7c-2.8-4.5-11.7-8.1-19.9-8.1h-4.7l-5.5,12l0.2,0.4l0.7,1.4
	l0.2,0.4l0.6,1.2l1.6,3.1l0.3,0.7l1.7,3.4l2.7,5.4l1.7,3.4l2.2,4.4l0.1,0.3l5.6,11.1l2.5,4.9l1.4,2.8l0.6,1.1l1.7,3.4l1.1,2.2
	l0.3,0.7l2.4,4.8l4.8,9.6l1.5,2.9l1.6,3.2l0.9,1.8l3.6,7.2l2.8,5.6h-5h-16.2h-8.3h-7.4h-17.8h-27.2h-36.6h-16.3h-4.6H-366h-6h-3.7
	h-13.5h-3.9h-17.1h-26.2h-6.8h-15.2h-9.4l2.3-4.6l0.9-1.8l3.6-7.1l2.6-5.1l2.3-4.7l3.1-6.2l0.7-1.3l24.2-48.1l0.4-0.8l1.8-3.7
	l0.5-0.9l1.8-3.5l0.4-0.8l0.9-1.8h7.4h6.4h0.7l-3.2-7h-25.2c-8.2,0-17.1,3.5-19.9,8.1l-53.3,84.7c-2.9,4.6-3.3,8.9-1.6,12.2
	C-509.3,1591.8-506,1594.2-501,1595z M-204.6,1539.3c-1.7,0-3.5-0.9-4.1-2l-9.9-18.8c-0.5-0.9,0.3-1.7,1.9-1.7
	c1.5,0,3.2,0.8,3.7,1.7l10.4,18.8C-202.1,1538.4-202.9,1539.3-204.6,1539.3z M-470.1,1527.4c2.4-4.1,9.4-7.3,15.7-7.3
	c6.3,0,9.8,3.2,7.8,7.3c-2.1,4.2-9.3,7.8-16,7.8C-469.3,1535.2-472.6,1531.6-470.1,1527.4z"/>
<path class="st2" d="M-462.6,1535.2c6.7,0,13.9-3.5,16-7.8c2-4.1-1.5-7.3-7.8-7.3c-6.3,0-13.3,3.2-15.7,7.3
	C-472.6,1531.6-469.3,1535.2-462.6,1535.2z"/>
<path class="st2" d="M-213.1,1518.4c-0.5-0.9-2.2-1.7-3.7-1.7c-1.5,0-2.4,0.8-1.9,1.7l9.9,18.8c0.6,1.1,2.4,2,4.1,2
	c1.7,0,2.6-0.9,1.9-2L-213.1,1518.4z"/>
<path class="st3" d="M-156.9,1586.6c-0.5,2.7-2.1,4.9-4.7,6.4c-2.5,1.5-5.8,2.3-9.9,2.3h-163h-162.8h-0.2c-0.3,0-0.5,0-0.8,0
	c-0.2,0-0.4,0-0.6,0c-0.3,0-0.7,0-1-0.1c-0.2,0-0.4,0-0.6-0.1c-0.2,0-0.4-0.1-0.7-0.1c-2.4-0.4-4.4-1-6.1-2c-1.7-1-3-2.4-3.9-4
	c-0.6-1-1-2.1-1.2-3.2l0.6,11c0,11.7,1,18.3,14.1,18.3h163h163c13.1,0,14.1-6.6,14.1-18.3l0.6-11
	C-156.8,1586.1-156.8,1586.3-156.9,1586.6z"/>
<path class="st3" d="M-171.5,1595.3c4.1,0,7.4-0.8,9.9-2.3c2.6-1.5,4.2-3.8,4.7-6.4C-158.1,1591-162.8,1595.3-171.5,1595.3z"/>
<path class="st3" d="M-499.8,1595.2c-0.2,0-0.4,0-0.6-0.1C-500.2,1595.1-500,1595.1-499.8,1595.2z"/>
<path class="st3" d="M-498.2,1595.3c-0.2,0-0.4,0-0.6,0C-498.6,1595.3-498.4,1595.3-498.2,1595.3z"/>
<path class="st3" d="M-507.1,1593c1.6,1,3.7,1.7,6.1,2c-5-0.8-8.3-3.2-9.9-6C-510.2,1590.6-508.9,1592-507.1,1593z"/>
<polygon class="st1" points="-458.4,1562.9 -461,1567.9 -458.4,1567.8 "/>
<path class="st1" d="M-458.4,1575.4v-0.7l-6.2,0.5l-0.9,1.8c1.5-0.7,3.5-1.3,5.6-1.4L-458.4,1575.4z"/>
<path class="st4" d="M-459.9,1575.5c-2.1,0.1-4,0.7-5.6,1.4l-2.3,4.6h9.4v-6.1L-459.9,1575.5z"/>
<path class="st5" d="M-237.5,1515.3C-237.5,1515.3-237.5,1515.3-237.5,1515.3c-0.1,0-0.2,0-0.3,0L-237.5,1515.3z"/>
<path class="st5" d="M-266,1548c-5.4,4.1-9.1,9-10.8,14.3c-0.2,0.6-1.3,0.9-2.5,0.9c0,0.1-0.1,0.3-0.1,0.4l24,1.7
	c-0.1-0.4,0.5-0.8,1.5-0.8c0.2,0,0.3,0,0.5,0c0.2-0.6,0.4-1.1,0.6-1.7l-3.9-0.2l4.9-6.1h2.7c0.4-0.5,0.9-1.1,1.4-1.6h-2.8l2.9-3.6h4
	c0.3-0.2,0.6-0.5,0.9-0.7c0.3-0.3,0.7-0.5,1-0.8h-4.6l2-2.4h5.6c0.5-0.5,1.1-1,1.5-1.5h-28.6c-0.3,0.2-0.6,0.5-1,0.8
	C-265.9,1546.8-265.4,1547.4-266,1548z"/>
<path class="st5" d="M-237.5,1536.3h4.2c0-1.7-0.3-3.4-0.7-4.9h-1.1l-5.1-11.1h2.3c0-0.2-0.1-0.4-0.1-0.6l-21-1.1c0,0.1,0,0.2,0,0.3
	l1.5,0.1l1.5,3.9h-2.3c0.2,0.6,0.3,1.2,0.5,1.8h2.5l1.6,4.2h-2.9c0.6,2.5,1.1,5.8-0.4,8.7l0.8,2.4h-2.6c-0.1,0.1-0.2,0.2-0.2,0.3h25
	c0.1-0.4,0.2-0.7,0.3-1.1h-2.7L-237.5,1536.3z M-253.6,1532.9c-0.8,0-1.6-0.3-1.7-0.6c-0.1-0.3,0.4-0.6,1.3-0.6
	c0.8,0,1.6,0.3,1.7,0.6C-252.2,1532.6-252.8,1532.9-253.6,1532.9z"/>
<path class="st5" d="M-247.2,1505.4l-1,2.2l-0.5-1.1c-0.5,0-0.9-0.1-1.2-0.3c0,0,0,0,0,0c-2.5,1.1-4.5,2.5-6,4l0.8,3.7l-3.1-0.1
	c-0.1,0.2-0.1,0.3-0.2,0.5l20.1,1c-0.6-0.1-1.2-0.3-1.3-0.5c-0.1-0.3,0.4-0.5,1.1-0.5c0.5,0,1,0.1,1.3,0.3c0.5-0.9,1.3-1.7,2.4-2.4
	l-2.7-5.4c-0.8-0.1-1.5-0.2-2.3-0.2C-242.3,1506.1-244.8,1505.8-247.2,1505.4z"/>
<path class="st5" d="M-255.2,1578.3l-1.5-4.9h1.8c0-0.4,0-0.9,0.1-1.3l-21.9-1.6c-0.1,0.4-0.7,0.7-1.6,0.7c-1,0-1.9-0.4-2-0.9
	c0,0,0-0.1,0-0.1l-0.8-0.1c-0.6,3.6-0.7,7.4-0.6,11.2h27.2c-0.1-1-0.2-2.1-0.3-3.1H-255.2z"/>
<path class="st5" d="M-407.3,1543.8c9.3-3.6,15.2-8.7,14.1-13.2c-1.8-8.1-23.8-12.4-23.9-19.6c0-1.4,0.8-2.9,0.4-4.2
	c-0.7-1.9-4.4-3.5-9.4-4c-0.6-0.1-1.2-0.1-1.9-0.1l-24.2,48.1c3.5,0,7.1-0.1,10.7-0.3C-429.4,1549.6-416.9,1547.5-407.3,1543.8z"/>
<path class="st4" d="M-453.5,1566.4c-1,0-1.9,0.4-2.1,0.8c-0.1,0.1-0.1,0.2,0,0.3l3.5-0.3c0,0,0,0,0,0
	C-451.9,1566.8-452.5,1566.4-453.5,1566.4z"/>
<path class="st4" d="M-454.3,1568.1c0.9,0,1.9-0.4,2.1-0.8l-3.5,0.3C-455.6,1567.9-455.1,1568.1-454.3,1568.1z"/>
<polygon class="st4" points="-431.7,1573.6 -436.4,1581.4 -410.2,1581.4 -400.9,1571.5 "/>
<polygon class="st4" points="-458.4,1575.4 -458.4,1581.4 -443.2,1581.4 -438.6,1574 "/>
<path class="st4" d="M-355.8,1568.5l-5.7,0.4l-8.6,10.3l4.1,2.2h26.8l-9-10.8C-349.5,1569.1-352.6,1568.3-355.8,1568.5z"/>
<path class="st4" d="M-354.2,1514.8c-8.7-0.8-16.9-2.8-22.2-5.1c-0.4-0.2-0.8-0.4-1.2-0.6l-6.6,2.2l19.2,9.1c0.7,0,1.4-0.1,2.1-0.1
	c3.5-0.2,7-0.1,10.4,0l2.9-3.1C-349.6,1516.1-351.4,1515.1-354.2,1514.8z"/>
<path class="st4" d="M-362.7,1522.3c-5.3,0.3-10.3,1-14.5,2.1c3.1,2.9,5.2,6,6.3,9.4c0.3,1.1,4.1,1.2,5.1,0.1l7.5-7.6l3.8-4.1
	C-357.4,1522.2-360.1,1522.2-362.7,1522.3z"/>
<path class="st4" d="M-380.2,1507.6c-1.3-0.8-2.7-1.6-4.3-2.1c-0.8-0.2-1.7-0.4-2.6-0.5l-2.6,5.7L-380.2,1507.6z"/>
<path class="st4" d="M-400.3,1511c0.6,0.6,1.5,1.2,2.4,1.8l-2.2-4.9C-401.2,1508.8-401.3,1509.9-400.3,1511z"/>
<path class="st4" d="M-389.1,1516.8c3.8,1.7,7,3.6,9.7,5.7c2.6-0.7,5.5-1.2,8.5-1.6l-17.4-8.4l-2.7,0.9l-1,2.1
	C-391,1516-390.1,1516.4-389.1,1516.8z"/>
<path class="st4" d="M-349.5,1508.2c-1.1,0.3-1.9,0.7-1.6,1.2c0,0,0.1,0.1,0.1,0.1c1.5,0.1,3,0.3,4.6,0.4c-0.3-0.7-0.5-1.3-0.7-2
	C-348,1507.9-348.8,1508-349.5,1508.2z"/>
<path class="st4" d="M-287.8,1547.2l-2,14.1c-0.1,0.6,1,1.2,2.3,1.3l8,0.5c0,0,0,0,0.1,0c1.2,0.1,2.3-0.3,2.5-0.9
	c1.7-5.3,5.4-10.2,10.8-14.3c0.7-0.5,0.1-1.2-1-1.5c-0.4-0.1-0.9-0.2-1.4-0.2l-17.3,0C-286.8,1546.3-287.7,1546.7-287.8,1547.2z"/>
<polygon class="st4" points="-260,1491 -278.3,1491 -278.2,1492.1 "/>
<path class="st6" d="M-254.1,1531.7c-0.8,0-1.4,0.3-1.3,0.6c0.1,0.3,0.9,0.6,1.7,0.6s1.4-0.3,1.3-0.6
	C-252.5,1531.9-253.3,1531.7-254.1,1531.7z"/>
<path class="st6" d="M-289.8,1492.2l0,0.7l1.5-0.1l9.9-0.6l0.2,0l-0.1-1.1h-0.3h-9.9h-2.4h-1c0.1,0.5,0.1,0.9,0.2,1.4L-289.8,1492.2
	z"/>
<path class="st6" d="M-233.3,1536.3h10.7l-2.5-4.9h-8.9C-233.5,1532.9-233.2,1534.5-233.3,1536.3z"/>
<path class="st6" d="M-237.1,1514.5c-0.3-0.2-0.8-0.3-1.3-0.3c-0.8,0-1.3,0.2-1.1,0.5c0.1,0.2,0.7,0.4,1.3,0.5l-20.1-1
	c0.1-0.2,0.1-0.3,0.2-0.5l-16.6-0.7l-0.7-4.4h19.2l0.4,1.6c1.5-1.5,3.5-2.9,6-4c0,0,0,0,0,0c0.3,0.1,0.7,0.2,1.2,0.3l-3.4-7.6
	l-2.2,0.1l-4.2,0.3l-6.7,0.4l-11.9,0.7l-10.3,0.6l-1.5,0.1l0,0.3l-2.5,0.2c-0.3,2.1-0.7,4.1-1.3,6.1h5.3l0.6,5.2l0,0.1l-7.9-0.3
	c0,0,0,0.1-0.1,0.1l-2.1,4.6h5.8l0.8,3.6h-8.3l-1.7,3.7h8.2l-3.3,6h-7.7l-5.1,11.1l6.4,2.1l-3.4,13.3l-8.5-3.7l-6.5,14.1l-9.5-21
	l-6.2-2.7l3.4-3.4l-1.2-2.7l-5,4.9l-0.7-0.3l-1.6,1.9l-2.5,3l-2.6,3.1l5.2-0.9l4.5,3.2l-6.9,1.2l-0.6,0.1l-2.9-2.7l-6.6,7.9
	l-0.6,0.7l-5.9,7.1l-1.5,1.8l5.7-0.4c3.2-0.2,6.3,0.6,7.6,2.1l9,10.8h4.6h16.3h36.6c-0.1-3.8,0.1-7.5,0.6-11.2l0.8,0.1
	c0,0,0,0.1,0,0.1c0.1,0.5,1,0.9,2,0.9c0.9,0,1.5-0.3,1.6-0.7l21.9,1.6c0,0.4,0,0.8-0.1,1.3h14.7l1.8,4.9h-16.4
	c0.1,1,0.2,2.1,0.3,3.1h17.8h7.4h8.3l1.1-6.5l11.8,1l3.3,5.6h5l-2.8-5.6l-3.6-7.2l-0.9-1.8h-15.2l-1.4-3.2h15l-1.5-2.9h-10.5
	l-4.4-9.6h10.1l-2.4-4.8l-0.3-0.7l-1.1-2.2l-1.7-3.4l-0.6-1.1h-12.5c-0.1,0.4-0.2,0.7-0.3,1.1h-25c0.1-0.1,0.2-0.2,0.2-0.3h-23.8
	l5.3-14h5.2l1.4,4.9h11.3l2.3,6.7c1.5-2.9,1.1-6.2,0.4-8.7h-7.7l-1.4-4.2h7.9c-0.2-0.6-0.3-1.2-0.5-1.8h-18.2l1.9-4.5l15.6,0.6
	c0-0.1,0-0.2,0-0.3l21,1.1c0,0.2,0.1,0.4,0.1,0.6h7.2l-0.1-0.3l-2.2-4.4l-1.7-3.4C-235.8,1512.8-236.6,1513.7-237.1,1514.5z
	 M-340.1,1557.6l-0.2,0l-2.7-2.6l0.5-0.1l7.3-1.2l3.7,2.7L-340.1,1557.6z M-319.7,1576.9l-4.9-7.8h22.3l1,7.8H-319.7z
	 M-293.2,1579.1l-1.4-9.3h7h1.8l0,0.1l1.7,9.2H-293.2z M-268.4,1546.3c0.5,0,1,0.1,1.4,0.2c0.3-0.3,0.6-0.5,1-0.8h28.6
	c-0.5,0.5-1,1-1.5,1.5h4.1l-0.1,2.4h-6.9c-0.3,0.3-0.7,0.5-1,0.8c-0.3,0.3-0.6,0.5-0.9,0.7h8.8l-0.1,3.6h-12.7
	c-0.5,0.5-1,1.1-1.4,1.6h14l-0.3,7.2l-17.4-0.9c-0.2,0.6-0.4,1.1-0.6,1.7c-0.2,0-0.3,0-0.5,0c-0.9,0-1.6,0.4-1.5,0.8l-24-1.7
	c0-0.1,0.1-0.3,0.1-0.4c0,0,0,0-0.1,0l-8-0.5c-1.4-0.1-2.4-0.7-2.3-1.3l2-14.1c0.1-0.5,1-0.9,2.1-0.9L-268.4,1546.3z M-276.4,1503.3
	l18.9,0.2l0.9,4h-19.2L-276.4,1503.3z M-237.5,1515.3l-0.3,0C-237.7,1515.3-237.6,1515.3-237.5,1515.3
	C-237.5,1515.3-237.5,1515.3-237.5,1515.3z"/>
<path class="st6" d="M-247.2,1505.4c2.3,0.4,4.8,0.8,7.5,1.1c0.8,0.1,1.5,0.2,2.3,0.2l-1.7-3.4l-0.3-0.7l-1.6-3.1l-0.6-1.2l-2.3,0.1
	L-247.2,1505.4z"/>
<path class="st6" d="M-400.9,1571.5l1.3-1.4l1.1-1.1l1.8-1.9l1.3-1.4l0.4-0.4l2.3-2.4l11.3-12l-9.1,8.4l-17.5-4.2l15.2-8.5l3.9-2.2
	l0.1,0l11.5,2.1l4.3-4.5l4.4-4.7l0.4-0.4l0,0l9.8-10.4l-7.5,7.6c-1,1.1-4.7,1-5.1-0.1c-1-3.4-3.2-6.5-6.3-9.4
	c4.2-1.1,9.2-1.8,14.5-2.1c2.6-0.1,5.3-0.1,8.2-0.1l1.9-2c-3.4-0.1-6.9-0.1-10.4,0c-0.7,0-1.4,0.1-2.1,0.1l-19.2-9.1l6.6-2.2
	c0.4,0.2,0.8,0.4,1.2,0.6c5.4,2.4,13.6,4.4,22.2,5.1c2.8,0.3,4.6,1.2,4.6,2.3l2.4-2.5l0.5-0.5l0.4-0.4c0,0,0.1-0.1,0.1-0.1
	c0.3-0.3,0.7-0.7,1.1-1l-0.1-0.3c-0.4-0.8-0.7-1.6-1-2.4c-1.6-0.1-3.1-0.2-4.6-0.4c0,0-0.1-0.1-0.1-0.1c-0.3-0.5,0.5-0.9,1.6-1.2
	c0.7-0.2,1.5-0.3,2.3-0.3c-0.2-0.7-0.4-1.4-0.6-2.2l0,0.4c0,0,0,0,0,0h0l0,0c0-0.1-0.1-0.3-0.1-0.4l-15.9,0.6l0.7-4.3h14.6
	c0-0.3-0.1-0.6-0.1-0.9h-8.7l0.1-1.1l2.2-0.2c-0.7,0-1.5,0-2.2,0c-7.8-0.1-15.4-0.4-22.8-1c-1.4-0.1-2.7-0.2-4.1-0.3l-1.4,3.1l0.1,0
	l0.9,0.4l1.2,0.6l-0.8,0.2l-2.1,0.6l-0.8,1.7c0.9,0.1,1.8,0.3,2.6,0.5c1.6,0.5,3,1.3,4.3,2.1l-9.6,3.1l-1.3,2.8l2.7-0.9l17.4,8.4
	c-3,0.4-5.9,0.9-8.5,1.6c-2.7-2.1-6-4-9.7-5.7c-0.9-0.4-1.9-0.8-2.9-1.3l-2.3,5l-3.6-7.8c-1-0.6-1.8-1.2-2.4-1.8
	c-1-1-0.9-2.1,0.2-3.1l-5.4-12c-1.4-0.2-2.8-0.4-4.1-0.7l-7.9-1.4l-5.6-1l-0.4,0.8l-1.8,3.5l-0.5,0.9l-1.8,3.7l-0.4,0.8
	c0.6,0,1.3,0.1,1.9,0.1c5,0.5,8.7,2.1,9.4,4c0.5,1.3-0.4,2.8-0.4,4.2c0.1,7.2,22.1,11.5,23.9,19.6c1,4.6-4.9,9.7-14.1,13.2
	c-9.6,3.7-22.1,5.8-34.3,6.6c-3.6,0.2-7.2,0.3-10.7,0.3l-0.7,1.3l-3.1,6.2l-2.3,4.7v4.9l-2.6,0.2l-3.6,7.1l6.2-0.5v0.7l19.8-1.3
	l-4.6,7.4h6.8l4.7-7.8L-400.9,1571.5z M-372.1,1501.9l0.2-1.2l0,0l6.3-0.4l0,0l-0.5,2.9h-3.9h-2.4L-372.1,1501.9z M-415.1,1497.6
	l-0.6,1.4h-0.8h-4.8l0.3-0.6l0.5-1l0.2-0.3h5.6L-415.1,1497.6z M-406,1498.2l-0.7,1.7h-5.6h0l0,0l0.8-2h2.6h2.9L-406,1498.2z
	 M-452.2,1567.3C-452.2,1567.3-452.2,1567.3-452.2,1567.3c-0.3,0.5-1.2,0.8-2.1,0.8c-0.8,0-1.3-0.2-1.4-0.6c0-0.1,0-0.2,0-0.3
	c0.2-0.5,1.2-0.8,2.1-0.8C-452.5,1566.4-451.9,1566.8-452.2,1567.3z M-456.2,1564.9l3.2-6.5h32.7l-2.3,6.5H-456.2z"/>
<polygon class="st6" points="-381.7,1573 -379,1570 -377.5,1568.4 -371.1,1561.3 -370.9,1561 -362.3,1551.4 -361.2,1550.2 
	-354.1,1542.3 -353,1541.1 -352.1,1540.1 -350.4,1538.2 -343.2,1530.2 -339.3,1525.8 -341,1522.1 -342,1523.2 -347,1528.9 
	-347,1528.9 -354.7,1537.7 -355.9,1539.1 -356.5,1539.7 -358,1541.5 -363.4,1547.6 -375.7,1561.6 -382,1568.8 -383.4,1570.3 
	-384.4,1571.6 -387.4,1575 -393.1,1581.4 -389.2,1581.4 -384.8,1576.5 "/>
<polygon class="st6" points="-263.4,1495.1 -264.6,1495.2 -277.9,1496 -281.4,1496.2 -287.9,1496.6 -289.5,1496.7 -289.4,1497.1 
	-287.9,1497 -280.5,1496.5 -278.2,1496.4 -277.8,1496.4 -276.6,1496.3 -263.4,1495.5 -262.2,1495.5 -253.9,1495 -254.1,1494.5 "/>
<path class="st6" d="M-380.6,1494.7c8.7,0.7,17.7,1.1,26.8,1.2c1.7,0,3.3,0,5,0c0-0.4,0-0.9,0.1-1.3H-376l0.8-3.5h-2.3h-3.2
	l-1.6,3.5C-381.7,1494.6-381.2,1494.6-380.6,1494.7z"/>
<polygon class="st6" points="-372,1581.4 -366,1581.4 -370.1,1579.2 "/>
<path class="st2" d="M-384.4,1571.6l1.1-1.2l1.4-1.6l6.3-7.2l12.3-14l5.4-6.1l1.6-1.8l0.5-0.6l1.3-1.4l7.7-8.8l0,0l5-5.7l1-1.1
	l-4.3-9.5c-0.4,0.3-0.7,0.7-1.1,1c0,0-0.1,0.1-0.1,0.1l-0.4,0.4l-0.5,0.5l-2.4,2.5l-2.9,3.1l-1.9,2l-3.8,4.1l-9.8,10.4l0,0l-0.4,0.4
	l-4.4,4.7l-4.3,4.5l-4.1,4.3l-11.3,12l-2.3,2.4l-0.4,0.4l-1.3,1.4l-1.8,1.9l-1.1,1.1l-1.3,1.4l-9.3,9.9h17.1l5.6-6.4L-384.4,1571.6z
	"/>
<path class="st2" d="M-278.4,1492.2l-9.9,0.6l-1.5,0.1l-1.8,0.1c0.1,1.3,0.2,2.6,0.2,3.9l1.8-0.1l1.5-0.1l6.6-0.4l3.5-0.2l13.2-0.8
	l1.2-0.1l9.3-0.6l-1.6-3.5h-4.3l-18.2,1.1L-278.4,1492.2z"/>
<polygon class="st2" points="-241.6,1498.3 -241.9,1497.8 -242.6,1496.4 -242.8,1496 -243.9,1498.4 "/>
<path class="st2" d="M-348.7,1499.8c-0.1-0.8-0.1-1.7-0.1-2.5c0-0.5,0-0.9,0-1.4c-1.7,0-3.3,0-5,0c-9.1-0.1-18.2-0.5-26.8-1.2
	c-0.5,0-1.1-0.1-1.6-0.1l-1.8,3.9c1.3,0.1,2.7,0.2,4.1,0.3c7.4,0.5,15.1,0.9,22.8,1c0.7,0,1.5,0,2.2,0c1.1,0,2.3,0,3.4,0
	C-350.6,1499.8-349.7,1499.8-348.7,1499.8z"/>
<path class="st2" d="M-409.7,1495.2c1.4,0.2,2.7,0.4,4.1,0.7l-2.1-4.7l-0.7-0.1h-6.4h-7.4l-0.9,1.8l5.6,1L-409.7,1495.2z"/>
<polygon class="st2" points="-361.5,1568.9 -360,1567.1 -354.1,1560 -353.5,1559.3 -346.9,1551.4 -347.6,1550.7 -346.6,1550.5 
	-346.2,1550.5 -343.6,1547.3 -341,1544.3 -339.5,1542.4 -334.5,1536.4 -339.3,1525.8 -343.2,1530.2 -350.4,1538.2 -352.1,1540.1 
	-353,1541.1 -354.1,1542.3 -361.2,1550.2 -362.3,1551.4 -370.9,1561 -371.1,1561.3 -377.5,1568.4 -379,1570 -381.7,1573 
	-384.8,1576.5 -389.2,1581.4 -375.7,1581.4 -372,1581.4 -370.1,1579.2 "/>
<path class="st2" d="M-263.4,1495.5l-13.2,0.8l-1.2,0.1l-0.4,0l-2.2,0.1l-7.5,0.4l-1.5,0.1l-1.8,0.1c0,1.4-0.1,2.8-0.3,4.1l2.4-0.1
	l1.5-0.1l10.3-0.6l11.9-0.7l6.7-0.4l4.2-0.3l2.2-0.1l-1.8-3.9l-8.3,0.5L-263.4,1495.5z"/>
<path class="st7" d="M-363.1,1501.9l-0.7,4.3l15.9-0.6c-0.2-1.2-0.4-2.5-0.6-3.7H-363.1z"/>
<path class="st7" d="M-351.6,1499.8c-1.1,0-2.3,0-3.4,0l-2.2,0.2l-0.1,1.1h8.7c0-0.4-0.1-0.8-0.1-1.2
	C-349.7,1499.8-350.6,1499.8-351.6,1499.8z"/>
<polygon class="st7" points="-366,1503.2 -365.5,1500.3 -365.5,1500.3 -371.8,1500.7 -371.8,1500.8 -372.1,1501.9 -372.3,1503.2 
	-369.9,1503.2 "/>
<path class="st7" d="M-348.7,1494.6c0.1-1.2,0.2-2.4,0.4-3.5h-26.9l-0.8,3.5H-348.7z"/>
<polygon class="st7" points="-407.7,1491 -408.4,1491 -407.7,1491.2 "/>
<polygon class="st7" points="-384.2,1502.7 -383.4,1502.5 -384.5,1501.9 -385.4,1501.5 -385.5,1501.5 -386.3,1503.3 "/>
<path class="st7" d="M-287,1512.9L-287,1512.9l-0.6-5.2h-5.3c-0.5,1.7-1.2,3.3-1.9,4.9L-287,1512.9z"/>
<path class="st7" d="M-289.5,1496.7l-1.8,0.1c0,0,0,0,0,0.1c0,0.1,0,0.2,0,0.3l1.8-0.1L-289.5,1496.7z"/>
<path class="st7" d="M-289.8,1492.2l-1.8,0.3c0,0.2,0,0.3,0.1,0.5l1.8-0.1L-289.8,1492.2z"/>
<path class="st7" d="M-291.6,1501.6l2.5-0.2l0-0.3l-2.4,0.1C-291.5,1501.4-291.6,1501.5-291.6,1501.6z"/>
<polygon class="st7" points="-411.5,1498 -412.3,1499.9 -412.3,1499.9 -412.3,1499.9 -406.7,1499.9 -406,1498.2 -405.9,1498 
	-408.8,1498 "/>
<polygon class="st7" points="-420.5,1497.3 -421,1498.3 -421.3,1499 -416.5,1499 -415.7,1499 -415.1,1497.6 -414.8,1497 
	-420.4,1497 "/>
<polygon class="st7" points="-240.1,1520.2 -235,1531.4 -233.9,1531.4 -225,1531.4 -230.6,1520.2 -237.8,1520.2 "/>
<polygon class="st7" points="-237.5,1536.3 -236.3,1539.1 -233.6,1539.1 -221.1,1539.1 -222.5,1536.3 -233.3,1536.3 "/>
<polygon class="st7" points="-256.9,1537.6 -259.3,1530.8 -270.6,1530.8 -272,1525.9 -277.2,1525.9 -282.5,1539.9 -258.7,1539.9 
	-256.1,1539.9 "/>
<polygon class="st7" points="-257.4,1518.9 -258.9,1518.8 -274.5,1518.2 -276.4,1522.8 -258.2,1522.8 -255.9,1522.8 "/>
<polygon class="st7" points="-255.2,1524.6 -257.7,1524.6 -265.6,1524.6 -264.2,1528.9 -256.5,1528.9 -253.6,1528.9 "/>
<polygon class="st7" points="-339.5,1542.4 -338.8,1542.7 -333.8,1537.9 -334.5,1536.4 "/>
<polygon class="st7" points="-336,1543.9 -329.8,1546.6 -332.6,1540.5 "/>
<polygon class="st7" points="-305.3,1557.2 -301.9,1543.8 -308.3,1541.7 -313.8,1553.5 "/>
<polygon class="st7" points="-324.6,1569 -319.7,1576.9 -301.3,1576.9 -302.3,1569 "/>
<polygon class="st7" points="-285.9,1569.8 -287.6,1569.8 -294.7,1569.8 -293.2,1579.1 -284.1,1579.1 -285.8,1569.9 "/>
<polygon class="st7" points="-290.4,1520.9 -291.2,1517.3 -297,1517.3 -298.7,1520.9 "/>
<polygon class="st7" points="-295.5,1530.6 -292.3,1524.6 -300.4,1524.6 -303.2,1530.6 "/>
<polygon class="st7" points="-257.5,1503.5 -276.4,1503.3 -275.7,1507.5 -256.6,1507.5 "/>
<polygon class="st7" points="-275.5,1508.7 -274.8,1513.1 -258.2,1513.8 -255.1,1513.9 -255.9,1510.3 -256.3,1508.7 "/>
<polygon class="st7" points="-246.5,1549.7 -241.9,1549.7 -235,1549.7 -234.9,1547.2 -239,1547.2 -244.6,1547.2 "/>
<polygon class="st7" points="-250.6,1554.8 -247.8,1554.8 -235.2,1554.8 -235,1551.2 -243.8,1551.2 -247.7,1551.2 "/>
<polygon class="st7" points="-256.8,1562.6 -252.9,1562.8 -235.5,1563.6 -235.2,1556.5 -249.2,1556.5 -251.9,1556.5 "/>
<polygon class="st7" points="-220.6,1560.8 -210.2,1560.8 -215,1551.2 -225,1551.2 "/>
<polygon class="st7" points="-222.3,1566.9 -207.1,1566.9 -208.7,1563.7 -223.7,1563.7 "/>
<polygon class="st7" points="-255.2,1578.3 -254.8,1578.3 -238.4,1578.3 -240.2,1573.4 -254.9,1573.4 -256.7,1573.4 "/>
<polygon class="st7" points="-219.9,1574.9 -221.1,1581.4 -204.8,1581.4 -208.1,1575.8 "/>
<polygon class="st7" points="-420.3,1558.5 -453,1558.5 -456.2,1564.9 -422.6,1564.9 "/>
<polygon class="st7" points="-388.9,1544.4 -392.8,1546.5 -408,1555.1 -390.5,1559.2 -381.4,1550.8 -377.3,1546.5 -388.8,1544.4 "/>
<polygon class="st7" points="-342.5,1555 -343,1555.1 -340.3,1557.7 -340.1,1557.6 -331.5,1556.5 -335.2,1553.8 "/>
<polygon class="st7" points="-347.6,1550.7 -346.9,1551.4 -344.1,1554.1 -343.4,1554 -336.5,1552.8 -341,1549.6 -346.2,1550.5 
	-346.6,1550.5 "/>
<ellipse class="st6" cx="-248" cy="1463.2" rx="10.2" ry="11.5"/>
<ellipse class="st6" cx="-394.1" cy="1467.2" rx="12.3" ry="13.9"/>
<g>
	<path class="st8" d="M-248,1443.7c-9.9,0-17.9,9-17.9,20.2c0,1.8,0.2,4.2,0.6,5.2h0l0,0c0.4,1.5,0.9,2.9,1.5,4.3l4.9,10.8l3.2,7
		l1.6,3.5l0.2,0.5l1.8,3.9l3.4,7.6l0.5,1.1l1-2.2l3.2-6.9l1.1-2.4l5.5-12l4.8-10.4c1.4-2.9,2.3-6.2,2.3-9.8
		C-230.2,1452.7-238.2,1443.7-248,1443.7z M-248,1451.7c5.6,0,10.2,5.2,10.2,11.5c0,6.4-4.6,11.5-10.2,11.5
		c-5.6,0-10.2-5.2-10.2-11.5C-258.3,1456.8-253.7,1451.7-248,1451.7z"/>
	<path class="st8" d="M-394.1,1443.7c-11.9,0-21.5,10.8-21.5,24.2c0,2.1,0.3,5.2,0.7,6.2h0l0,0.1c0.4,1.8,1,3.5,1.8,5.2l2.2,4.8
		l3.2,7l0.1,0.1l2.1,4.7l5.4,12l2.2,4.9l3.6,7.8l2.3-5l1-2.1l1.3-2.8l2.6-5.7l0.8-1.7l0.8-1.8l1.4-3.1l1.8-3.9l1.6-3.5l3.3-7l2-4.3
		c1.7-3.5,2.7-7.5,2.7-11.8C-372.6,1454.5-382.3,1443.7-394.1,1443.7z M-394.1,1453.3c6.8,0,12.3,6.2,12.3,13.9s-5.5,13.9-12.3,13.9
		c-6.8,0-12.3-6.2-12.3-13.9S-400.9,1453.3-394.1,1453.3z"/>
	<path class="st8" d="M-347.9,1506C-347.9,1506-347.9,1506-347.9,1506L-347.9,1506L-347.9,1506z"/>
	<path class="st8" d="M-291.5,1492.9c0-0.2,0-0.3-0.1-0.5c-0.1-0.5-0.1-1-0.2-1.4c-0.4-2.5-1-4.8-1.9-7
		c-4.4-11.5-14.6-19.6-26.4-19.6c-11.7,0-21.8,8.1-26.3,19.6c-0.9,2.2-1.5,4.6-2,7c-0.2,1.2-0.3,2.3-0.4,3.5c0,0.4-0.1,0.9-0.1,1.3
		c0,0.5,0,0.9,0,1.4c0,0.8,0,1.7,0.1,2.5c0,0.4,0.1,0.8,0.1,1.2c0,0.3,0.1,0.6,0.1,0.9c0.1,1.2,0.3,2.4,0.6,3.7c0,0.1,0,0.3,0.1,0.4
		l0-0.4c0.2,0.8,0.4,1.5,0.6,2.2c0.2,0.7,0.5,1.4,0.7,2c0.3,0.8,0.7,1.6,1,2.4l0.1,0.3l4.3,9.5l1.7,3.8l4.8,10.6l0.7,1.4l1.2,2.7
		l2.8,6.1l9.5,21l6.5-14.1l5.5-11.8l5.1-11.1l2.8-6l1.7-3.7l1.7-3.6l2.1-4.6c0,0,0-0.1,0.1-0.1c0.8-1.6,1.4-3.2,1.9-4.9
		c0.6-1.9,1.1-4,1.3-6.1c0-0.1,0-0.2,0.1-0.4c0.2-1.3,0.2-2.7,0.3-4.1c0-0.1,0-0.2,0-0.3c0,0,0,0,0-0.1
		C-291.3,1495.5-291.4,1494.2-291.5,1492.9z M-307.3,1507.7c-0.6,0.9-1.4,1.7-2.1,2.4c-1.8,1.7-3.8,2.9-6.1,3.6
		c-1.4,0.4-2.9,0.7-4.5,0.7c-2.6,0-5.1-0.7-7.3-1.9c-0.8-0.5-1.6-1-2.4-1.6c-1.7-1.4-3.2-3.2-4.3-5.3c-1-1.9-1.8-3.9-2.1-6.1
		c-0.2-1.2-0.3-2.4-0.3-3.6c0-0.1,0-0.2,0-0.3c0-1.6,0.2-3.1,0.6-4.5c0.6-2.6,1.7-5,3.2-7c3-4.1,7.6-6.7,12.6-6.7s9.6,2.6,12.6,6.7
		c1.5,2,2.6,4.4,3.2,7c0.4,1.5,0.6,3.2,0.6,4.9c0,2.4-0.4,4.7-1.1,6.8c0,0.1-0.1,0.2-0.1,0.3
		C-305.4,1504.7-306.3,1506.3-307.3,1507.7z"/>
</g>
<path class="st6" d="M-320,1477.3c-5.1,0-9.6,2.6-12.6,6.7h25.3C-310.4,1479.9-315,1477.3-320,1477.3z"/>
<path class="st6" d="M-335,1491h18.4h2.1h6.5h3.9c-0.6-2.6-1.7-5-3.2-7h-25.3c-1.5,2-2.6,4.4-3.2,7h0.7H-335z"/>
<polygon class="st6" points="-314.5,1498.3 -316.3,1498.4 -316.1,1500.1 "/>
<path class="st6" d="M-309.5,1510.1l-0.3-2.4h2.4c1-1.4,1.9-3,2.5-4.7l-1.9,0.2l-0.3,0.4l-1.6,1.9l-4.8,5.8l0,0.4l0,0.2h-0.5l-1.7,2
	C-313.3,1513-311.2,1511.8-309.5,1510.1z"/>
<path class="st6" d="M-333.4,1505.3c1.6-0.7,3.2-1.3,5-1.9c1.4-0.5,2.7-0.9,4.2-1.3l-1-3.2l-1.5,0.1c-1.3,0.1-2.6,0.1-3.9,0.2
	c-1.8,0.1-3.7,0.2-5.5,0.2c0.4,2.2,1.1,4.3,2.1,6.1C-333.9,1505.5-333.7,1505.4-333.4,1505.3z"/>
<path class="st6" d="M-325.9,1511l0.9-1l2.1-2.3l0-0.2c-0.9,0.4-1.8,0.8-2.7,1.2c-1.4,0.7-2.7,1.4-3.9,2.1c-0.1,0-0.1,0.1-0.2,0.1
	c0.8,0.6,1.6,1.2,2.4,1.6L-325.9,1511z"/>
<path class="st6" d="M-332.7,1495.4c1.3-0.1,2.6-0.1,3.9-0.2l18-1.1l2.8-3.1h-6.5h-2.1H-335h-0.2h-0.7c-0.3,1.5-0.6,3-0.6,4.5
	C-335.2,1495.5-334,1495.5-332.7,1495.4z"/>
<path class="st6" d="M-310.8,1494.1l-18,1.1c-1.3,0.1-2.6,0.1-3.9,0.2c-1.3,0.1-2.5,0.1-3.8,0.2c0,0.1,0,0.2,0,0.3
	c0,1.2,0.1,2.4,0.3,3.6c1.8-0.1,3.7-0.2,5.5-0.2c1.3-0.1,2.6-0.1,3.9-0.2l1.5-0.1l8.9-0.6l1.8-0.1l-1.6,1.8l0,0
	c-2.8,0.6-5.5,1.2-8.1,2c-1.4,0.4-2.8,0.9-4.2,1.3c-1.8,0.6-3.4,1.2-5,1.9c-0.2,0.1-0.4,0.2-0.6,0.3c1.1,2.1,2.6,3.9,4.3,5.3
	c0.1,0,0.1-0.1,0.2-0.1c1.2-0.7,2.5-1.5,3.9-2.1c0.9-0.4,1.8-0.8,2.7-1.2c0.1,0,0.2-0.1,0.2-0.1l-0.2,0.3l-2.1,2.3l-0.9,1l-1.4,1.6
	c2.2,1.2,4.7,1.9,7.3,1.9c1.5,0,3-0.3,4.5-0.7l1.7-2l0.1-0.2l0.3-0.3l4.8-5.8l1.6-1.9l0.3-0.4l0.2-0.2c0.6-0.1,1.2-0.2,1.9-0.3
	c0.7-2.1,1.1-4.4,1.1-6.8c0-1.7-0.2-3.3-0.6-4.9h-3.9L-310.8,1494.1z"/>
<path class="st6" d="M-309.5,1510.1c0.8-0.7,1.5-1.5,2.1-2.4h-2.4L-309.5,1510.1z"/>
<path class="st6" d="M-322.7,1507.4c-0.1,0-0.2,0.1-0.2,0.1l0,0.2L-322.7,1507.4z"/>
<polygon class="st6" points="-313.4,1511.6 -313.5,1511.2 -313.7,1511.6 -313.9,1511.7 -313.4,1511.7 "/>
<path class="st6" d="M-316.2,1500.1L-316.2,1500.1l-0.1-1.7l-8.9,0.6l1,3.2C-321.7,1501.3-319,1500.7-316.2,1500.1z"/>
<path class="st6" d="M-304.7,1502.6c-0.6,0.1-1.3,0.2-1.9,0.3l-0.2,0.2l1.9-0.2C-304.8,1502.9-304.7,1502.8-304.7,1502.6z"/>
</svg>
